<?xml version="1.0" encoding="utf-8"?>
<!-- Generator: Adobe Illustrator 22.0.1, SVG Export Plug-In . SVG Version: 6.00 Build 0)  -->
<svg version="1.1" id="Layer_1" xmlns="http://www.w3.org/2000/svg" xmlns:xlink="http://www.w3.org/1999/xlink" x="0px" y="0px"
	 viewBox="0 0 50 50" style="enable-background:new 0 0 50 50;" xml:space="preserve">
<style type="text/css">
	.st0{fill:#A73A3A;}
	.st1{fill:#FFFFFF;}
	.st2{fill:#A73A3A;stroke:#FFFFFF;stroke-miterlimit:10;}
	.st3{fill:none;stroke:#FCFCFC;stroke-miterlimit:10;}
</style>
<g>
	<g>
		<ellipse class="st0" cx="25" cy="25" rx="25" ry="25"/>
	</g>
	<path class="st1" d="M43.5,31.5c0,0-1-1.2-4.2,0.2c-3.7,1.3-3.6,1.4-4.6,1.7c0,0-0.1,0.3-2.7,0.4s-7.7-0.2-7.7-0.2
		s-1.1-0.3-0.2-0.6c1.5,0,1.6,0.1,4.3,0.1c3,0.2,3.5-1.6,1.2-2.2c-2.7-0.1-10.5-0.3-10.5-0.3s-4.9-0.2-7.2,3.8
		c-2.8,3.9-2.1,2.8-2.1,2.8s9.5,0.9,10.7,0.8c1.2-0.4,0.4-1.1,4.6-1c4.1,0.1,7.5,0.2,7.5,0.2s2.7,0.1,7.2-2.3
		C44.2,32.6,44.3,32.8,43.5,31.5z"/>
	<polygon class="st1" points="20.2,39.4 7.7,38.4 7.6,40.1 20.1,40.5 	"/>
	<ellipse class="st2" cx="32.5" cy="23.5" rx="3.3" ry="3.7"/>
	<ellipse class="st2" cx="25.9" cy="10.7" rx="3.3" ry="3.7"/>
	<line class="st3" x1="35.2" y1="7.9" x2="22.7" y2="27"/>
</g>
</svg>
