<?xml version="1.0" encoding="utf-8"?>
<!-- Generator: Adobe Illustrator 22.0.1, SVG Export Plug-In . SVG Version: 6.00 Build 0)  -->
<svg version="1.1" id="Layer_1" xmlns="http://www.w3.org/2000/svg" xmlns:xlink="http://www.w3.org/1999/xlink" x="0px" y="0px"
	 viewBox="0 0 50 50" style="enable-background:new 0 0 50 50;" xml:space="preserve">
<style type="text/css">
	.st0{fill:#A73A3A;}
	.st1{fill:#FFFFFF;}
</style>
<g>
	<g>
		<ellipse class="st0" cx="25.1" cy="25" rx="24.9" ry="25"/>
	</g>
	<path class="st1" d="M22.9,9.5c-0.1-4.4-0.1-3.3-0.1-3.3L28,6c0,0,0,1.6,0.1,3.3c7.9,0,10.6,3.6,12.7,6c-0.9,0.5-4,1.7-5.5,2.3
		C33.5,16,29.9,11.9,22,15c-3.3,2.6-2.3,6.8,8.9,8.5c14.2,1.9,13.7,15.8-2,17c0.1,2.8,0.1,3.4,0.1,3.4L23.7,44c0,0,0-1.2-0.1-3.4
		c-3.5-0.2-13.1-1.8-14.2-8.9l8.7-0.2c1,5.4,15,5,14.8,0.2c-0.2-6.6-16.7-3.8-20.9-12.4C10.8,16,15,9.9,22.9,9.5z"/>
</g>
</svg>
