<svg id="Layer_1" data-name="Layer 1" xmlns="http://www.w3.org/2000/svg" viewBox="0 0 110 71.87"><defs><style>.cls-1,.cls-4{fill:#3fa012;}.cls-2{fill:#020202;}.cls-3{fill:#fff;}.cls-4{font-size:13px;font-family:MyriadPro-Regular, Myriad Pro;}.cls-5{letter-spacing:0em;}.cls-6{letter-spacing:0em;}</style></defs><title>doisoatnhanh</title><path class="cls-1" d="M64.76,54.73S-50.43,62.54,26.45,22.91C9,33.33-18.07,52.29,71.76,46.7c3.74-3.3,1.19-4.85,3.74-3.3S110,46.64,110,46.64,63.86,56.85,62.35,58.39,64.76,54.73,64.76,54.73Z" transform="translate(0 -1.43)"/><polygon class="cls-2" points="38.16 18.53 26.48 29.5 92.26 29.5 82.92 18.53 38.16 18.53"/><path class="cls-3" d="M44.38,20.94s.39,2.44-6.23,2.19c-2.72,2.92-4.28,4.63-4.28,4.63s7-.24,4.28,1.71h16s-11.29-4.39,2.34-8.53Z" transform="translate(0 -1.43)"/><path class="cls-3" d="M64.24,20.94s12.84,4.87.78,8.53H81s-2.72-1.71,4.28-1.71a49.58,49.58,0,0,1-3.5-4.87s-6.62-.24-5.45-1.95Z" transform="translate(0 -1.43)"/><path class="cls-3" d="M59.18,22.4v.73c-1.56-.24-7.78,1.71,0,2.44,6.23,1.46-2.82,1.25-3.89,1.19-.27,0,0,0,1.17,0v-.24H55.28v1H58.4v1h2.34v-1c.78.24,9.34-1.46-.39-2.68-5.06-.73-.78-1,1.95-1v.24h1.17v-.49h.39v-.49H61.12V22.4Z" transform="translate(0 -1.43)"/><rect x="26.48" y="30.47" width="65.78" height="1.22"/><rect x="26.48" y="32.42" width="65.78" height="1.22"/><rect x="26.48" y="34.37" width="65.78" height="1.22"/><rect x="26.48" y="36.32" width="65.78" height="1.22"/><path d="M58.88,2.66V1.48h3.28V2.66C67.09,2.73,68.73,4,70,4.91c-.55.16-2.54.59-3.5.79-1.07-.59-3.25-2.1-8.29-1-2.08.89-1.53,2.41,5.44,3.12,8.89.81,8.34,5.8-1.51,6.09v1.23H58.88V13.88c-2.19-.09-8.2-.76-8.75-3.33H55.6c.55,1.94,9.3,1.94,9.3.2C64.9,8.37,54.51,9.24,52,6.11,51.23,4.9,54,2.73,58.88,2.66Z" transform="translate(0 -1.43)"/><text class="cls-4" transform="translate(14.29 68.62) scale(0.99 1)">đối so<tspan class="cls-5" x="32.55" y="0">á</tspan><tspan class="cls-6" x="38.77" y="0">t nhanh</tspan></text></svg>