<?xml version="1.0" encoding="utf-8"?>
<!-- Generator: Adobe Illustrator 22.0.1, SVG Export Plug-In . SVG Version: 6.00 Build 0)  -->
<svg version="1.1" id="Layer_1" xmlns="http://www.w3.org/2000/svg" xmlns:xlink="http://www.w3.org/1999/xlink" x="0px" y="0px"
	 viewBox="0 0 32 32" style="enable-background:new 0 0 32 32;" xml:space="preserve">
<style type="text/css">
	.st0{fill:#FEFFFD;stroke:#000000;stroke-width:0.25;stroke-miterlimit:10;}
</style>
<g transform="translate(192 48)">
	<path class="st0" d="M-162.7-23.4c0-1.2-0.9-1.3-1.9-1.7l-4.8-1.9c-0.1,0-0.2-0.1-0.2-0.1v0c-0.9-0.4-1.6-0.9-1.9-1.3l0,0l0,0
		c0,0,0,0,0-0.1l0,0l0,0l0,0v0c-0.1-0.2-0.3-0.3-0.4-0.2l0,0l0,0l0,0l0,0h0l0,0c-0.1,0.1-0.1,0-0.2-0.1c-0.1-0.4-0.3-1-0.4-1.1
		c-0.1-0.2-0.2,0.3-0.2-0.2l0.1-0.9c0.1-0.1,0.2-0.2,0.2-0.2c0.3-0.4,0.3-1.3,0.5-1.5c0.2-0.2,0.5-0.3,0.8-1.4
		c0.3-1.1,0.7-2.6,0.3-2.6c-0.1,0-0.2,0.1-0.3,0.2c0.1-0.4,0.2-1.3,0.3-1.9c0-0.9-0.1-3.1-0.6-3.9c-0.3-0.5-0.9-1-1.6-1.4
		c-0.4-0.2-0.7-0.4-1-0.6c-0.9-0.4-3.8-0.2-4.7,0c-1.1,0.2-1.9,0.9-2.4,1.8c-0.5,0.8-0.7,3.3-0.7,4.1c0,0.4,0.3,1,0.3,1.4
		c0,0.2,0.1,0.2,0.1,0.4c0,0-0.1,0-0.1,0c-0.4,0,0,1.6,0.3,2.6c0.3,1.1,0.6,1.1,0.8,1.4c0.2,0.2,0.2,1.2,0.5,1.5
		c0.1,0.1,0.1,0.1,0.2,0.2l0.1,0.8l0.1,0.4c0-0.1-0.1-0.2-0.2,0c-0.1,0.4-0.3,0.8-0.4,1.2c0,0,0,0-0.1,0c-0.1-0.1-0.3,0-0.5,0.3
		c-0.2,0.4-1,1-1.9,1.4l0,0l0,0.1l0,0c-0.1,0-0.1,0.1-0.2,0.1l-4.8,1.9c-1,0.4-1.9,0.4-1.9,1.7l-0.8,4.2h28.8L-162.7-23.4
		L-162.7-23.4z"/>
</g>
</svg>
