<?xml version="1.0" encoding="utf-8"?>
<!-- Generator: Adobe Illustrator 22.0.1, SVG Export Plug-In . SVG Version: 6.00 Build 0)  -->
<svg version="1.1" id="Layer_1" xmlns="http://www.w3.org/2000/svg" xmlns:xlink="http://www.w3.org/1999/xlink" x="0px" y="0px"
	 viewBox="0 0 25 25" style="enable-background:new 0 0 25 25;" xml:space="preserve">
<g>
	<path d="M6.3,1.1h12.5v3.1H6.3V1.1z M23.4,5.8H1.6C0.7,5.8,0,6.5,0,7.4v7.8c0,0.9,0.7,1.6,1.6,1.6h4.7V23h12.5v-6.3h4.7
		c0.9,0,1.6-0.7,1.6-1.6V7.4C25,6.5,24.3,5.8,23.4,5.8z M17.2,21.4H7.8v-7.8h9.4V21.4z M23.8,8.2c0,0.6-0.5,1.1-1.1,1.1
		c-0.6,0-1.1-0.5-1.1-1.1S22,7,22.7,7C23.3,7,23.8,7.5,23.8,8.2z"/>
</g>
</svg>
