<?xml version="1.0" ?><svg contentScriptType="text/ecmascript" contentStyleType="text/css" enable-background="new 0 0 136.333 123" height="64.19600677490234px" id="Layer_1" preserveAspectRatio="xMidYMid meet" version="1.0" viewBox="31.470495223999023 27.97100257873535 64.19600677490234 64.19600677490234" width="64.19600677490234px" xml:space="preserve" xmlns="http://www.w3.org/2000/svg" xmlns:xlink="http://www.w3.org/1999/xlink" zoomAndPan="magnify"><g><g><path d="M85.6,52.214c-2.148,0-3.897,1.212-3.897,2.709v16.582c0,1.494,1.749,2.709,3.897,2.709    c2.149,0,3.9-1.215,3.9-2.709V54.923C89.5,53.426,87.749,52.214,85.6,52.214z" fill="#B4C155"/><path d="M41.558,52.339c-2.162,0-3.921,1.201-3.921,2.687v16.328c0,1.485,1.759,2.688,3.921,2.688    c2.17,0,3.933-1.203,3.933-2.688V55.025C45.49,53.54,43.728,52.339,41.558,52.339z" fill="#BFCE66"/></g><g><path d="M63.584,36.511c-1.922,0-3.758,0.357-5.466,0.976c-0.034-0.132-0.06-0.263-0.136-0.383l-5.008-8.242    c-0.4-0.666-1.291-0.889-1.984-0.511c-0.697,0.386-0.938,1.234-0.533,1.896l5.005,8.243c0.039,0.064,0.112,0.099,0.164,0.155    c-4.208,2.399-7.247,6.615-8,11.606c0,0-0.024,20.102-0.024,24.525c0,4.137,1.467,6.241,5.076,6.619v8.184    c0,1.427,1.75,2.588,3.898,2.588s3.9-1.161,3.9-2.588v-8.428c0.923,0.002,2.023,0.005,3.125,0.008V36.512    C63.596,36.512,63.59,36.511,63.584,36.511z" fill="#BFCE66"/><path d="M79.49,50.026c-0.812-4.903-3.83-9.041-7.989-11.402c0.042-0.051,0.106-0.075,0.14-0.136l5.008-8.243    c0.404-0.66,0.165-1.51-0.533-1.896c-0.692-0.378-1.583-0.155-1.986,0.511l-5.006,8.242c-0.07,0.116-0.099,0.243-0.129,0.368    c-1.688-0.604-3.498-0.958-5.393-0.96v44.647c1.082,0.002,2.165,0.005,3.076,0.008v8.412c0,1.427,1.749,2.588,3.898,2.588    c2.148,0,3.9-1.161,3.9-2.588v-8.16c3.701-0.4,5.055-2.633,5.055-6.486C79.531,70.667,79.49,50.026,79.49,50.026z" fill="#B4C155"/></g><g><rect fill="#A2AE24" height="2.885" width="15.985" x="47.647" y="50.282"/><rect fill="#929F15" height="2.885" width="15.844" x="63.633" y="50.282"/></g><circle cx="69.07" cy="43.683" fill="#DFDAB6" r="2.469"/><circle cx="58.07" cy="43.683" fill="#F7F0C3" r="2.469"/></g></svg>