<svg id="Layer_1" data-name="Layer 1" xmlns="http://www.w3.org/2000/svg" viewBox="0 0 92.01 74.78"><defs><style>.cls-1{fill:#333;}.cls-2{fill:#fff;}.cls-3{fill:#f2f2f2;}.cls-4,.cls-5,.cls-6{fill:#3fa012;}.cls-5{stroke:#39b54a;stroke-miterlimit:10;}.cls-6{font-size:12.73px;font-family:MyriadPro-Regular, Myriad Pro;}.cls-7{letter-spacing:-0.01em;}</style></defs><title>lamchugionhan</title><path class="cls-1" d="M24.71,15.57C20.77,5,35.11-4.8,50.34,3.57c-8.78.67-12.19,2.56-14.52,3.64l1.61,1.62s9.5-4.32,17.21-4.18V4.11a8,8,0,0,1-2.33-.27c-.36-.27-.18-.94-.18-.94s3.76-1.21,6.81,0v.94a16.62,16.62,0,0,1-2.51.27c0,.81-.18.54-.18.54s9-.27,16.67,3.37A5.84,5.84,0,0,1,74.36,6.8S65.22,3.3,60.56,3.57c11.29-6.48,29.75-2.16,25.63,12-4.66-4.86-9-7.42-10.39-8-.9.81-1.25,1.21-1.25,1.21s13.62,5.53,14.88,19.83c0,11.47-7.17,16.87-12.9,20.91a25,25,0,0,0,5.74,5.13,7.38,7.38,0,0,1-9-3.64,42.28,42.28,0,0,1-34.23,0c-2,5.8-9.14,3.64-9,3.78a18.41,18.41,0,0,0,6.09-5.26c-15.59-8.91-19-29-.36-39.53-.9-1.21-.54-.94-1.79-1.75A35.56,35.56,0,0,0,24.71,15.57Z" transform="translate(-9.99 -0.43)"/><path class="cls-2" d="M55.36,7.34l.9,21.72,25.81-9.85S74.89,7.48,55.36,7.34Z" transform="translate(-9.99 -0.43)"/><path class="cls-3" d="M82.06,39.32,56.25,29.07l25.81-9.85S89.41,29.07,82.06,39.32Z" transform="translate(-9.99 -0.43)"/><path class="cls-2" d="M30.27,39.86l26-10.79L82.06,39.32C72.92,53.22,44.61,57.27,30.27,39.86Z" transform="translate(-9.99 -0.43)"/><path class="cls-3" d="M29.55,20l26.7,9-.9-21.72S38,7.07,29.55,20Z" transform="translate(-9.99 -0.43)"/><path class="cls-4" d="M57,29c0,.41-.42.76-1,.77a.91.91,0,0,1-1-.73c0-.41.42-.76,1-.77A.91.91,0,0,1,57,29Z" transform="translate(-9.99 -0.43)"/><line class="cls-5" x1="45.59" y1="16.56" x2="46.07" y2="28.66"/><polygon class="cls-4" points="43.05 19.14 45.5 12.38 48.51 19.05 45.61 16.8 43.05 19.14"/><line class="cls-5" x1="55.77" y1="25.01" x2="46.28" y2="28.64"/><polygon class="cls-4" points="52.78 24.27 59.06 23.77 54.79 27.36 55.56 25.08 52.78 24.27"/><path class="cls-4" d="M57.25,9.18c0,.74-.74,1.35-1.71,1.37a1.61,1.61,0,0,1-1.79-1.3c0-.74.74-1.35,1.71-1.37A1.61,1.61,0,0,1,57.25,9.18Z" transform="translate(-9.99 -0.43)"/><path class="cls-4" d="M71.62,12.63c0,.74-.74,1.35-1.71,1.37a1.61,1.61,0,0,1-1.79-1.3c0-.74.74-1.35,1.71-1.37A1.61,1.61,0,0,1,71.62,12.63Z" transform="translate(-9.99 -0.43)"/><path class="cls-4" d="M81.54,20c0,.74-.74,1.35-1.71,1.37A1.61,1.61,0,0,1,78,20.11c0-.74.74-1.35,1.71-1.37A1.61,1.61,0,0,1,81.54,20Z" transform="translate(-9.99 -0.43)"/><path class="cls-4" d="M83.85,29.24c0,.74-.74,1.35-1.71,1.37a1.61,1.61,0,0,1-1.79-1.3c0-.74.74-1.35,1.71-1.37A1.61,1.61,0,0,1,83.85,29.24Z" transform="translate(-9.99 -0.43)"/><path class="cls-4" d="M81.4,38.41c0,.74-.74,1.35-1.71,1.37a1.61,1.61,0,0,1-1.79-1.3c0-.74.74-1.35,1.71-1.37A1.61,1.61,0,0,1,81.4,38.41Z" transform="translate(-9.99 -0.43)"/><path class="cls-4" d="M72.54,46c0,.74-.74,1.35-1.71,1.37A1.61,1.61,0,0,1,69,46.11c0-.74.74-1.35,1.71-1.37A1.61,1.61,0,0,1,72.54,46Z" transform="translate(-9.99 -0.43)"/><path class="cls-4" d="M57.92,49.25c0,.74-.74,1.35-1.71,1.37a1.61,1.61,0,0,1-1.79-1.3c0-.74.74-1.35,1.71-1.37A1.61,1.61,0,0,1,57.92,49.25Z" transform="translate(-9.99 -0.43)"/><path class="cls-4" d="M44.62,46.54c0,.74-.74,1.35-1.71,1.37a1.61,1.61,0,0,1-1.79-1.3c0-.74.74-1.35,1.71-1.37A1.61,1.61,0,0,1,44.62,46.54Z" transform="translate(-9.99 -0.43)"/><path class="cls-4" d="M33.82,38.85c0,.74-.74,1.35-1.71,1.37a1.61,1.61,0,0,1-1.79-1.3c0-.74.74-1.35,1.71-1.37A1.61,1.61,0,0,1,33.82,38.85Z" transform="translate(-9.99 -0.43)"/><path class="cls-4" d="M32,29.21c0,.74-.74,1.35-1.71,1.37a1.61,1.61,0,0,1-1.79-1.3c0-.74.74-1.35,1.71-1.37A1.61,1.61,0,0,1,32,29.21Z" transform="translate(-9.99 -0.43)"/><path class="cls-4" d="M33.24,20.87c0,.74-.74,1.35-1.71,1.37a1.61,1.61,0,0,1-1.79-1.3c0-.74.74-1.35,1.71-1.37A1.61,1.61,0,0,1,33.24,20.87Z" transform="translate(-9.99 -0.43)"/><path class="cls-4" d="M42,13.2c0,.74-.74,1.35-1.71,1.37a1.61,1.61,0,0,1-1.79-1.3c0-.74.74-1.35,1.71-1.37A1.61,1.61,0,0,1,42,13.2Z" transform="translate(-9.99 -0.43)"/><text class="cls-6" transform="translate(0 71.6)">làm chủ <tspan class="cls-7" x="44.93" y="0">g</tspan><tspan x="51.97" y="0">iờ nhận</tspan></text></svg>