<?xml version="1.0" encoding="utf-8"?>
<!-- Generator: Adobe Illustrator 22.0.1, SVG Export Plug-In . SVG Version: 6.00 Build 0)  -->
<svg version="1.1" id="Layer_1" xmlns="http://www.w3.org/2000/svg" xmlns:xlink="http://www.w3.org/1999/xlink" x="0px" y="0px"
	 viewBox="0 0 100 75" style="enable-background:new 0 0 100 75;" xml:space="preserve">
<style type="text/css">
	.st0{fill:#E2AA3B;}
	.st1{fill:#8537A5;}
</style>
<path class="st0" d="M24.8,8.2"/>
<g>
	<g>
		<path class="st0" d="M99.2,73.9c-22.2,0-35.5,0-57.7,0L19.4,15.3H1.6V0.7h26.6l22.2,58.5c19.2,0,29.6,0,48.8,0
			C99.2,64.1,99.2,69,99.2,73.9z"/>
		<path class="st0" d="M93.8,54.3H78.1c-0.2,0-0.4-0.2-0.4-0.4v-12c0-0.2,0.2-0.4,0.4-0.4h15.7c0.2,0,0.4,0.2,0.4,0.4v12
			C94.3,54.2,94.1,54.3,93.8,54.3z"/>
		<path class="st0" d="M70,54H54.9c-0.2,0-0.4-0.2-0.4-0.4V42.3c0-0.2,0.2-0.4,0.4-0.4H70c0.2,0,0.4,0.2,0.4,0.4v11.2
			C70.4,53.8,70.2,54,70,54z"/>
		<path class="st0" d="M85.5,35.4H66.8c-0.2,0-0.4-0.2-0.4-0.4V22.1c0-0.2,0.2-0.4,0.4-0.4h18.7c0.2,0,0.4,0.2,0.4,0.4v12.9
			C86,35.2,85.8,35.4,85.5,35.4z"/>
	</g>
	<g>
		<path class="st1" d="M54.7,36.9c0,0-51.4,73.1-48-3.2c0.5,18.5,3.8,49.4,44.3-7.3c-1.1-4.8-3.7-4.6-1.1-4.8S70.4,4.2,70.4,4.2
			s-14.3,35-13.6,37.1C57.4,43.4,54.7,36.9,54.7,36.9z"/>
		<path class="st1" d="M41.9,25.1c0,0-30.2,49.5-31.3,4.1c1.1,10.8,4.6,28.6,28.5-9.8c-0.9-2.7-2.6-2.2-0.9-2.7
			c1.7-0.5,12.5-12.8,12.5-12.8S43,26.2,43.5,27.4S41.9,25.1,41.9,25.1z"/>
	</g>
</g>
</svg>
