<?xml version="1.0" encoding="utf-8"?>
<!-- Generator: Adobe Illustrator 22.0.1, SVG Export Plug-In . SVG Version: 6.00 Build 0)  -->
<svg version="1.1" id="Layer_1" xmlns="http://www.w3.org/2000/svg" xmlns:xlink="http://www.w3.org/1999/xlink" x="0px" y="0px"
	 viewBox="0 0 280 72" style="enable-background:new 0 0 280 72;" xml:space="preserve">
<style type="text/css">
	.st0{fill:#E2AA3B;}
	.st1{fill:#8537A5;}
	.st2{fill:#07382F;}
	.st3{font-family:'MyriadPro-Regular';}
	.st4{font-size:12.3111px;}
	.st5{fill:#FFFFFF;}
</style>
<g>
	<g>
		<path class="st0" d="M280,69c-10.4,0-16.7,0-27.2,0l-10.4-27.6H234v-6.9h12.5L257,62.1c9.1,0,13.9,0,23,0
			C280,64.4,280,66.7,280,69z"/>
		<path class="st0" d="M277.2,59.8h-6.9c-0.2,0-0.4-0.2-0.4-0.4v-5.2c0-0.2,0.2-0.4,0.4-0.4h6.9c0.2,0,0.4,0.2,0.4,0.4v5.2
			C277.7,59.6,277.5,59.8,277.2,59.8z"/>
		<path class="st0" d="M266,59.6h-6.6c-0.2,0-0.4-0.2-0.4-0.4v-4.8c0-0.2,0.2-0.4,0.4-0.4h6.6c0.2,0,0.4,0.2,0.4,0.4v4.8
			C266.4,59.4,266.3,59.6,266,59.6z"/>
		<path class="st0" d="M273.3,50.9H265c-0.2,0-0.4-0.2-0.4-0.4v-5.6c0-0.2,0.2-0.4,0.4-0.4h8.3c0.2,0,0.4,0.2,0.4,0.4v5.6
			C273.8,50.7,273.6,50.9,273.3,50.9z"/>
	</g>
	<g>
		<path class="st1" d="M259,51.6c0,0-24.2,34.4-22.6-1.5c0.2,8.7,1.8,23.2,20.9-3.4c-0.5-2.3-1.8-2.2-0.5-2.3
			c1.3-0.1,9.6-8.2,9.6-8.2s-6.7,16.5-6.4,17.5C260.3,54.6,259,51.6,259,51.6z"/>
		<path class="st1" d="M253,46c0,0-14.2,23.3-14.7,1.9c0.5,5.1,2.2,13.5,13.4-4.6c-0.4-1.3-1.2-1-0.4-1.3c0.8-0.2,5.9-6,5.9-6
			s-3.6,10.5-3.4,11.1S253,46,253,46z"/>
	</g>
</g>
<text transform="matrix(1 0 0 1 13.4302 66.5645)" class="st2 st3 st4">thời gian vàng - mang theo chất lượng !!!</text>
<g>
	<path class="st0" d="M212.6,6"/>
	<path class="st0" d="M5.3,10.8v7.4H3v6h2.3V37c0,0-1.7,7.7,8.3,6.9c0-6.6,0-6.9,0-6.9S11,38.5,11,34.2s0-10.3,0-10.3h2.9v-5.7H11
		v-7.4H5.3z"/>
	<g>
		<path class="st0" d="M25.5,17.8c0,0-9.1-0.6-8.9,12.2c-0.6,12,4.8,14.3,8.8,14.3c4,0,10.6-0.8,10.3-12.8
			C35.8,19.6,31.8,18.1,25.5,17.8z"/>
		<path class="st5" d="M26.4,24.7c0,0-3.4-0.4-3.6,5.6c-0.1,5.9,1.7,7.4,4,7.4c3.1,0,3.7-2.9,3.7-6C30.6,29.1,30.4,24.7,26.4,24.7z"
			/>
	</g>
	<polygon class="st0" points="39.2,8.5 39.4,44.5 45.2,44.5 45.2,39.3 48.3,34.5 52.6,44.5 59.4,44.5 52.3,28.5 58.6,18.8 52,18.8 
		45.2,29.9 45.2,8.5 	"/>
	<g>
		<path class="st0" d="M66.8,33.8c0.3,3.4,4.3,6,8.8,2.3c2.9,3.1,4,4,4,4c-2.3,3.7-14.3,8-18-2.9c-1.4-12.6,0.6-18.8,8.6-19.7
			c5.1-0.3,10,2.9,9.7,16C72.3,33.7,68.8,33.8,66.8,33.8z"/>
		<path class="st5" d="M66.8,29h7.7c0,0,0-5.4-4-5.1C66.5,24.1,66.8,28.7,66.8,29z"/>
	</g>
	<g>
		<rect x="84.4" y="19.1" class="st0" width="6" height="25.4"/>
		<rect x="84.4" y="8.8" class="st0" width="6" height="6.6"/>
	</g>
	<g>
		<rect x="145.5" y="18.4" class="st0" width="6" height="26.3"/>
		<rect x="145.5" y="7.7" class="st0" width="6" height="6.8"/>
	</g>
	<rect x="180.6" y="37.9" class="st0" width="6" height="6.6"/>
	<path class="st0" d="M113.2,26.2c-0.9-0.9-7.3-4-9.4-0.6c-0.6,1.7,0.8,2,4.2,2.6s7.2,0,8.6,5.2c1.4,5.1-1.5,10-6.6,10.8
		c-5.1,0.8-9.4-0.1-12.8-3.2c3.5-5.4,3.7-5.7,3.7-5.7c1.1,1.1,5.1,3.7,9.4,2.3c2-1.1,2-3.4-3.7-4c-2.3-0.2-5.4-1.1-6.6-2.3
		c-0.9-0.9-2.6-5.4-0.6-9.4c3.1-5.4,12-4.6,17.1-0.6C113.5,25.6,113.2,26.2,113.2,26.2z"/>
	<path class="st0" d="M126.8,44.1v-16c0-3.7,6-4.9,6.6,0.3c0,7.4,0,16,0,16h6V27.6c0-9.1-8.8-12.8-12.6-6c0-5.7,0-13.1,0-13.1h-6
		v35.7H126.8z"/>
	<polygon class="st0" points="192.1,19.3 196.4,34.7 200.7,19.3 206.7,19.3 198.4,45 194.1,45 186.1,19.3 	"/>
	<path class="st0" d="M214.9,45.2V28.9c0-3.7,6.6-4.9,6.6,0c0,6.3,0,16.3,0,16.3h6V27.7c0-2.6-0.8-8.4-6.3-8.6c-5.5-0.2-6,3.1-6,3.1
		v-2.9h-6v25.7H214.9z"/>
	<g>
		<path class="st0" d="M163.4,41.3c0.3,1.7,5.4,5.7,10,0.9c2.6-4,2.3-6.9,2.3-11.1c0-5.6-0.3-10.3-4.6-12.6
			c-5.3-2.3-7.7,2.9-7.7,2.9v-3.1h-6v36.3h6V41.3z"/>
		<path class="st5" d="M167.8,24.1c-2.6,0.3-3.1,1.7-3.1,6.6c0,6.3,0.9,6.6,2.9,6.9c2.6,0.3,3.7-1.7,3.7-6.9
			C171.2,27,170.4,24.1,167.8,24.1z"/>
	</g>
</g>
<g>
	<polygon class="st0" points="251.9,5.4 246.8,5.4 251.9,5.5 	"/>
	<g>
		<g>
			<g>
				<path class="st0" d="M263.3,26.5h8.9c0,0-0.8-3.6-5.8-3.7L263.3,26.5z"/>
				<path class="st0" d="M271.5,27.7h-1.9c0.9,2.8-5.3,4.9-5.3,0H262v1.5c0.9,3.6,7.8,4.3,9.4,0V27.7z"/>
				<path class="st0" d="M264.3,16.6h2.1c0,0,0.4,0.2,0.3,1.3c0,0.6-1.2,0.2-1.2,0.2L264.3,16.6z"/>
				<path class="st0" d="M251.1,26.1h5.5c2.7-1,3.5-2.3,4-8.6l1.4-0.8c0,0,0.6-0.2,0.8,0.4c0,0,1,0.9,2.4,2.3c1.4,1.4,0.1,3,0,3.2
					s-2.3,2.7-2.3,2.7s-1.7,2.8-6.4,3.2c-4.7,0.4-12.8-0.1-14.1-0.2c-1.6-0.1-5.5-1-6.6-1.7c0-2.6,3-9.8,15.9-5.7L251.1,26.1z"/>
				<path class="st0" d="M246.3,29.3h-1.9c-0.7,1.1-3.9,2.3-5.5-0.8l-1.7-0.4C236.4,31.4,243.5,34.6,246.3,29.3z"/>
				<path class="st0" d="M235.7,22.7l-1.4-0.2c0,0-0.7,0.7-0.7,1.6h1.1C234.7,24.2,235,23.4,235.7,22.7z"/>
				<path class="st0" d="M240,17h8.5c0,0,3,0.2,3.5,2.6c-2.2-1.1-9.3-1.6-11.5-0.3C240.4,19.2,239.7,17.8,240,17z"/>
				<path class="st0" d="M261.7,15.7l-1.5,0.6l-0.7-1.3c0,0-1.1,0.1-2.2,0c-0.6-0.2-0.5-0.9,0-1h1.8c0,0,1-1.3,1.7,0L261.7,15.7z"/>
			</g>
			<path class="st0" d="M255.8,8.1l-0.4,0.4c0,0-1.5-0.8-2.9,0.2c0,0-1.2,0.5-1.6,1.4c-0.5,0.9-1.1,0.9-2.4,0.9s-2.2,2.1-2.2,2.1
				l2.3,0.8c0,0-1.6,1.3-1.1,2.3s4.4,1.4,7.5,1.4c-1.8,1.5-1.7,4.2-3,6.3c0,0-0.4,0.9-0.4,1.1c0,0-0.4,0.2-0.3,0.6
				c0,0,0.8,0.5,2.1,0.4c0,0,0.6-1.1-1.2-0.8l0.3-0.8l0.3,0.2c0,0,1.2-1.8,1.5-2.3c0.3-0.5,1.8-3.3,1.9-3.8c0.1-0.5,1.5-1.9-4.2-3.7
				l0.8-0.9c0,0,2.5,1.4,2.9,1.5c0,0,0.3-0.9,0.8-0.9l0.5,0c0,0,1.6-0.7,1,0.6c0,0,0.5,0.2,0.9,0.1c0,0,0.5-0.3,0.3-0.6
				c0,0-0.3-0.9-1.7-0.6h-0.4l-0.1-0.2c0,0-2.4-1-3-1c0,0,3.2-1.3,2.8-3.4c0,0,0.1-0.3-0.3-0.5l0.4-0.5L255.8,8.1z"/>
			<path class="st0" d="M256.7,9.3l-1.6-0.8c0,0,0.2-0.1,0.4-0.3l-0.1,0l0.1-0.1l-0.1,0l0-0.1c0,0-0.1,0-0.1,0c0-0.1,0-0.3,0.1-0.4
				c0,0,0.1,0.2,0.3,0.1c0,0,0-0.4,0.1-0.7c0.1-0.3,0.3-0.5,1.2-0.7c0,0,0.2-0.2,0.4,0c0.5-0.1,1,0,1.5,0.6c0,0,0.2-0.1,0.4,0.4
				l1.2,0c0,0-0.5,0.3-1,0.5c0,0-0.1,0.4-0.3,0.5c0,0-0.2,0.1-0.1,0.2c0,0,0.1,0.3-0.1,0.4l-0.2,0c0,0.2,0.1,0.3-0.3,0.3
				c0,0,0.1,0.3-0.2,0.2c0,0.1-0.2,0.5-0.8-0.1C257.3,9.1,256.9,9,256.7,9.3z"/>
		</g>
		<path class="st0" d="M243.3,17.7h-3.5c-1.6,0-2.9-1.3-2.9-2.9v-2.4c0-1.6,1.3-2.9,2.9-2.9h3.5c1.6,0,2.9,1.3,2.9,2.9v2.4
			C246.3,16.4,245,17.7,243.3,17.7z"/>
		<polygon class="st0" points="228.7,11.1 235.7,10.9 235.7,11.1 		"/>
		<polygon class="st0" points="241.6,8.2 248.6,7.9 248.6,8.2 		"/>
		<polygon class="st0" points="225.7,15 232.7,14.7 232.2,15 		"/>
		<polygon class="st0" points="231.4,18.2 235.7,18 235.3,18.5 		"/>
	</g>
</g>
</svg>
