<svg id="Layer_1" data-name="Layer 1" xmlns="http://www.w3.org/2000/svg" viewBox="0 0 101.59 74.12"><defs><style>.cls-1,.cls-2{fill:#212121;}.cls-2{opacity:0.97;}.cls-3,.cls-4{fill:#3fa012;}.cls-4{font-size:13.6px;font-family:MyriadPro-Regular, Myriad Pro;}.cls-5{letter-spacing:-0.01em;}.cls-6{letter-spacing:0em;}</style></defs><title>mienphigiaolai</title><path class="cls-1" d="M68.78,27.94H83.71s-1.33-5.84-9.71-6Z" transform="translate(-4.21 -0.43)"/><path class="cls-1" d="M82.49,29.89H79.22c1.46,4.52-9,7.89-9,0H66.6v2.37c1.46,5.8,13.1,6.91,15.9,0Z" transform="translate(-4.21 -0.43)"/><path class="cls-1" d="M70.48,12.07H74s.73.37.55,2c0,1-2,.37-2,.37Z" transform="translate(-4.21 -0.43)"/><path class="cls-1" d="M48.15,27.29h9.22c4.49-1.67,5.95-3.69,6.79-13.91l2.43-1.31s1.09-.37,1.33.65c0,0,1.7,1.39,4,3.71s.24,4.82,0,5.1L68.05,25.9s-2.91,4.45-10.8,5.1a179.73,179.73,0,0,1-23.78-.37c-2.67-.09-9.22-1.58-11.16-2.69,0-4.17,5-15.85,26.82-9.18Z" transform="translate(-4.21 -0.43)"/><path class="cls-1" d="M40,32.58H36.75a5.54,5.54,0,0,1-9.22-1.32l-2.91-.63C23.4,35.92,35.29,41,40,32.58Z" transform="translate(-4.21 -0.43)"/><path class="cls-1" d="M22.31,21.91l-2.43-.27a4.27,4.27,0,0,0-1.21,2.59h1.82A5.83,5.83,0,0,1,22.31,21.91Z" transform="translate(-4.21 -0.43)"/><path class="cls-1" d="M29.47,12.63H43.79s5.1.37,5.82,4.17C46,15,34,14.3,30.2,16.25,30.2,16.25,29,14,29.47,12.63Z" transform="translate(-4.21 -0.43)"/><path class="cls-1" d="M66,10.59l-2.55.93-1.21-2a17.22,17.22,0,0,1-3.64,0,.79.79,0,0,1,0-1.58H61.7s1.75-2.13,2.84,0Z" transform="translate(-4.21 -0.43)"/><rect class="cls-2" x="20" width="15.86" height="13.39" rx="2.94" ry="2.94"/><polygon class="cls-2" points="6.28 2.79 18.1 2.32 18.1 2.79 6.28 2.79"/><polygon class="cls-2" points="1.25 9.02 13.05 8.58 12.2 9.02 1.25 9.02"/><polygon class="cls-2" points="10.83 14.14 18.09 13.9 17.27 14.62 10.83 14.14"/><path class="cls-3" d="M43.83,50.77S147.7,60,86.47,24.26c13.59,9.33,33.94,26.2-47.18,19.47-2.66-2.92,0-4.19-2.66-2.92s-32.43,2-32.43,2,39.95,9.76,41,11.11S43.83,50.77,43.83,50.77Z" transform="translate(-4.21 -0.43)"/><text class="cls-4" transform="translate(7.15 70.72)">miễn phí <tspan class="cls-5" x="53.12" y="0">g</tspan><tspan class="cls-6" x="60.64" y="0">iao lại</tspan></text></svg>