<?xml version="1.0" encoding="utf-8"?>
<!-- Generator: Adobe Illustrator 22.0.1, SVG Export Plug-In . SVG Version: 6.00 Build 0)  -->
<svg version="1.1" id="Layer_1" xmlns="http://www.w3.org/2000/svg" xmlns:xlink="http://www.w3.org/1999/xlink" x="0px" y="0px"
	 viewBox="0 0 25 25" style="enable-background:new 0 0 25 25;" xml:space="preserve">
<style type="text/css">
	.st0{fill:#F8FCF5;}
</style>
<path class="st0" d="M22.6,22.9l-1.7,1.7c-0.3,0.3-1.2,0.5-1.2,0.5c-5.2,0-10.3-2-14-5.7C2,15.5,0,10.5,0,5.2c0,0,0.2-0.8,0.5-1.1
	l1.7-1.7c0.6-0.6,1.8-0.9,2.6-0.6l0.3,0.1c0.8,0.3,1.7,1.2,1.9,2L7.8,7C8,7.8,7.7,9,7.1,9.6L6,10.7c1.1,4,4.2,7.2,8.3,8.3l1.1-1.1
	c0.6-0.6,1.8-0.9,2.6-0.7l3.1,0.8c0.8,0.2,1.7,1.1,2,1.9l0.1,0.3C23.5,21.1,23.2,22.3,22.6,22.9z M14.1,12.5h1.6
	c0-1.7-1.4-3.1-3.1-3.1v1.6C13.4,10.9,14.1,11.6,14.1,12.5z M20.3,12.5c0-4.3-3.5-7.8-7.8-7.8v1.6c3.4,0,6.2,2.8,6.2,6.2H20.3z
	 M12.5,0v1.6c6,0,10.9,4.9,10.9,10.9H25C25,5.6,19.4,0,12.5,0z"/>
</svg>
