<?xml version="1.0" encoding="utf-8"?>
<!-- Generator: Adobe Illustrator 22.0.1, SVG Export Plug-In . SVG Version: 6.00 Build 0)  -->
<svg version="1.1" id="Layer_1" xmlns="http://www.w3.org/2000/svg" xmlns:xlink="http://www.w3.org/1999/xlink" x="0px" y="0px"
	 viewBox="0 0 400 235" style="enable-background:new 0 0 400 235;" xml:space="preserve">
<style type="text/css">
	.Arched_x0020_Green{fill:url(#SVGID_1_);stroke:#FFFFFF;stroke-width:0.25;stroke-miterlimit:1;}
	.st0{fill:url(#SVGID_2_);}
	.st1{opacity:0.58;fill:url(#SVGID_3_);}
	.st2{opacity:0.49;}
	.st3{fill:#FFFFFF;}
	.st4{fill:none;stroke:#388515;stroke-width:0.25;stroke-miterlimit:1;}
	.st5{opacity:0.58;}
	.st6{fill:#EAEAEA;}
	.st7{fill:#07382F;}
	.st8{fill:#00734E;}
	.st9{fill:#E2AA3B;}
	.st10{fill:#8537A5;}
	.st11{font-family:'MyriadPro-Regular';}
	.st12{font-size:16.551px;}
	.st13{font-size:16.414px;}
	.st14{fill-rule:evenodd;clip-rule:evenodd;fill:#07382F;}
	.st15{fill-rule:evenodd;clip-rule:evenodd;fill:#8537A5;}
	.st16{fill-rule:evenodd;clip-rule:evenodd;fill:#00734E;}
	.st17{font-size:13.8902px;}
	.st18{font-size:13.7736px;}
	.st19{font-size:13.7255px;}
	.st20{font-size:13.875px;}
	.st21{font-size:13.9832px;}
	.st22{font-size:13.9771px;}
	.st23{font-size:13.9953px;}
	.st24{font-size:14px;}
</style>
<linearGradient id="SVGID_1_" gradientUnits="userSpaceOnUse" x1="0" y1="0" x2="0.7071" y2="-0.7071">
	<stop  offset="0" style="stop-color:#1DAC43"/>
	<stop  offset="0.9831" style="stop-color:#09360A"/>
</linearGradient>
<g>
	<g>
		
			<linearGradient id="SVGID_2_" gradientUnits="userSpaceOnUse" x1="44" y1="278" x2="365" y2="-43" gradientTransform="matrix(0.9804 0 0 1 0 0)">
			<stop  offset="0" style="stop-color:#1DAC43"/>
			<stop  offset="0.9831" style="stop-color:#09360A"/>
		</linearGradient>
		<rect x="1" class="st0" width="399" height="235"/>
		
			<radialGradient id="SVGID_3_" cx="263.5622" cy="196.4558" r="287.6139" gradientTransform="matrix(0.9804 0 0 0.4883 0 100.5241)" gradientUnits="userSpaceOnUse">
			<stop  offset="0.4444" style="stop-color:#FFFFFF;stop-opacity:0"/>
			<stop  offset="0.9215" style="stop-color:#FFFFFF;stop-opacity:0.4637"/>
			<stop  offset="1" style="stop-color:#FFFFFF;stop-opacity:0.54"/>
		</radialGradient>
		<rect x="1" class="st1" width="399" height="235"/>
		<g class="st2">
			<path class="st3" d="M2.2,233.8c0-41.9,0-83.9,0-125.8c0-26.8,0-53.7,0-80.5c0-7.4,0-14.9,0-22.3c0-0.5-0.4-3.4,0-3.9
				C2,1.5,3.2,1.5,3.5,1.5c11.8-0.7,23.8,0,35.6,0c23.7,0,47.4,0,71,0c59.4,0,118.7,0,178.1,0c24,0,47.9,0,71.9,0
				c12.3,0,24.7,0.6,37,0c2.5-0.1,1.7,0.2,1.7,2.9c0,7.1,0,14.1,0,21.2c0,26.5,0,53,0,79.5c0,28.8,0,57.6,0,86.5c0,10,0,19.9,0,29.9
				c0,2.9,0,5.9,0,8.8c0,0.5,0.4,3.3,0,3.6c-0.1,0.1-5.4-0.2-6.2-0.2c-6.1,0-12.2,0-18.3,0c-21.4,0-42.8,0-64.1,0c-59,0-118,0-177,0
				c-41.5,0-83,0-124.6,0c-2.2,0-4.3,0-6.5,0c0,0,0,0.5,0,0.5c13.1,0,26.2,0,39.3,0c31.5,0,63,0,94.5,0c38.3,0,76.6,0,114.9,0
				c33,0,66,0,98.9,0c10.9,0,21.8,0,32.6,0c3.4,0,6.8,0,10.2,0c1.3,0,4.2,0.6,5.4,0c0.2-0.1,0.5,0,0.7,0c0,0,0-0.2,0-0.3
				c0-26.1,0-52.3,0-78.4c0-41.7,0-83.5,0-125.2c0-9.7,0-19.3,0-29c0,0,0-0.3,0-0.3c-13.1,0-26.2,0-39.3,0c-31.5,0-63,0-94.5,0
				C226.6,1,188.3,1,150,1C117,1,84,1,51,1C40.2,1,29.3,1,18.4,1C15,1,11.6,1,8.2,1C7,1,4,0.4,2.9,1C2.7,1,2.4,1,2.2,1
				c0,0,0,0.2,0,0.3c0,26.1,0,52.3,0,78.4c0,41.7,0,83.5,0,125.2C2.2,214.5,2.2,224.1,2.2,233.8C2.2,234.1,2.2,234.1,2.2,233.8z"/>
		</g>
		<rect x="1" class="st4" width="399" height="235"/>
		<g class="st5">
			<path d="M1,235.6c13.2,0,26.5,0,39.7,0c31.8,0,63.6,0,95.4,0c38.5,0,76.9,0,115.4,0c33.1,0,66.2,0,99.3,0c11,0,21.9,0,32.9,0
				c3.4,0,6.8,0,10.2,0c1.3,0,4.3,0.6,5.5,0c0.2-0.1,0.5,0,0.7,0c0,0,0-0.6,0-0.6c0-26.6,0-53.1,0-79.7c0-42.1,0-84.2,0-126.3
				c0-9.7,0-19.3,0-29c0,0,0-0.6,0-0.6c-13.2,0-26.5,0-39.7,0c-31.8,0-63.6,0-95.4,0c-38.5,0-76.9,0-115.4,0c-33.1,0-66.2,0-99.3,0
				c-11,0-21.9,0-32.9,0c-3.4,0-6.8,0-10.2,0c-1.3,0-4.3-0.6-5.5,0c-0.2,0.1-0.5,0-0.7,0C1-0.6,1,0,1,0c0,26.6,0,53.1,0,79.7
				c0,42.1,0,84.2,0,126.3c0,9.7,0,19.3,0,29c0,0.7,0,0.7,0,0c0-42.3,0-84.7,0-127c0-27.1,0-54.2,0-81.4c0-7.5,0-15,0-22.5
				c0-0.6-0.4-3.5,0-4.1C0.4,0.8,1.7,0.6,2.2,0.6c3.9,0.5,8.3,0,12.2,0c7.7,0,15.4,0,23.2,0c23.9,0,47.7,0,71.6,0
				c60,0,119.9,0,179.9,0c23.9,0,47.9,0,71.8,0c8.1,0,16.3,0,24.4,0c4.3,0,8.7,0.4,12.9,0c0.1,0,2.6,0.2,1.7-0.6
				c0.4,0.3,0,2.9,0,3.4c0,7.1,0,14.2,0,21.3c0,26.8,0,53.6,0,80.3c0,29,0,57.9,0,86.9c0,10.1,0,20.2,0,30.3c0,3,0,5.9,0,8.9
				c0,0.6,0.4,3.4,0,3.8c0.6-0.6-5.4-0.5-6.1-0.5c-6.1,0-12.1,0-18.2,0c-21.6,0-43.1,0-64.7,0c-59.3,0-118.5,0-177.8,0
				c-41.9,0-83.9,0-125.8,0c-2.1,0-4.3,0-6.4,0C1,234.4,1,235.6,1,235.6z"/>
		</g>
	</g>
	<path class="st6" d="M1,179C1,179,1,179,1,179c-0.1-0.4-0.1-0.7,0-1c0.1-26.4,0.2-45.6,0-49c0-0.1,0-0.4,0.1-0.4
		c1.3-0.5,13,29.6,29.3,40.4c9.8,6.5,25.9,9.3,48,11c47.8,3.7,71.6-25,105.7-23.3c9.3,0.5,20.6,2.6,32.5,10.3
		c16.9,10.9,18.1,23.7,31.4,28c14.9,4.9,30.6-5.6,37.3-10c25-16.7,27.3-39.5,42.2-63c11.2-17.7,31.6-39.3,72.5-55v55
		c-34.4,18.9-54,40.5-65.7,57c-15.7,22.2-15.9,33.7-31.4,42c-28.9,15.5-69.6-2.4-77.5-6c-19-8.8-21.5-16.2-38.2-19
		c-9.6-1.6-17.5-0.6-45.1,6c-44.7,10.8-39.4,11.8-50,13C53.9,219.5,12.7,195,1,179z"/>
	<path class="st7" d="M395.1,126"/>
	<polygon class="st8" points="106.8,108.3 91.3,111.8 106.9,108.7 	"/>
	<g>
		<path class="st7" d="M120.3,114.1l-1.1,1.5c0,0-5.1-1.5-8.6,2.3c0,0-3.2,2.4-4.1,5.4c-0.9,3-2.8,3.5-6.6,4.4c-3.7,0.9-5.4,8-5.4,8
			l7.5,1c0,0-4.1,5.1-1.8,7.9c2.3,2.9,14.3,1.6,23.4-0.6c-4.5,5.7-2.6,14.1-4.9,21.4c0,0-0.5,3-0.4,3.7c0,0-1,0.7-0.4,1.9
			c0,0,2.8,0.9,6.5,0c0,0,1-3.9-4.1-1.6l0.5-2.6l0.9,0.4c0,0,2.4-6.2,3-7.9s3.5-11.2,3.5-12.9s3.3-6.8-15.1-8.8l1.8-3.3
			c0,0,8.4,2.8,9.7,2.9c0,0,0.4-3.1,1.7-3.4l1.7-0.2c0,0,4.3-3.1,3.4,1.3c0,0,1.5,0.3,2.6-0.3c0,0,1.3-1.1,0.6-1.9
			c0,0-1.4-2.5-5.7-0.7l-1.3,0.3l-0.3-0.5c0,0-8-1.5-9.6-1.2c0,0,8.7-6.2,6.3-12.3c0,0,0.1-1-1.1-1.3l0.9-1.7L120.3,114.1z"/>
		<path class="st7" d="M123.7,117.3l-5.4-1.6c0,0,0.7-0.3,0.9-1.3l-0.4,0l0.2-0.5l-0.3,0l0.1-0.3c0,0-0.3,0.2-0.3,0
			c0-0.2-0.2-0.8,0.2-1.2c0,0,0.4,0.4,0.9,0c0,0-0.3-1.3-0.2-2.4c0.1-1,0.6-1.8,3.1-2.8c0,0,0.4-0.6,1.2-0.3c1.3-0.5,2.9-0.6,4.9,1
			c0,0,0.7-0.3,1.5,1.1l3.5-0.8c0,0-1.4,1.3-2.8,2.1c0,0-0.1,1.4-0.7,1.8c0,0-0.4,0.4-0.1,0.7c0,0,0.5,0.8,0,1.4l-0.8,0
			c-0.1,0.5,0.6,0.7-0.6,1.1c0,0,0.5,0.7-0.4,0.7c-0.1,0.3-0.2,1.5-2.4,0.3C125.3,116.4,124.2,116.3,123.7,117.3z"/>
	</g>
	<polygon class="st8" points="40.3,141 61.4,135.6 61.6,136.5 	"/>
	<polygon class="st8" points="77.4,123.7 98.4,118.3 98.6,119.2 	"/>
	<polygon class="st8" points="33.7,154.8 54.7,149.4 53.4,150.6 	"/>
	<polygon class="st8" points="52.9,160.9 65.9,157.7 64.7,159.3 	"/>
	<path class="st7" d="M176.3,168.8l-5.9,1.1c2.2,11-13.4,16.3-16.5,3l-4.9,0.9l0.9,4c5.7,13.1,26.4,9.4,26.4-6.1L176.3,168.8z"/>
	<path class="st7" d="M103.5,189.5l-5.9,1.2c-1.5,4-10.5,9.3-17.1,0.7l-5.5-0.2C74.8,201.7,98,207.3,103.5,189.5z"/>
	<path class="st7" d="M153.6,170.4l26.9-5.3c0,0-4.5-10.7-19.6-8.1L153.6,170.4z"/>
	<path class="st7" d="M150.9,139.5l6.3-1.2c0,0,1.4,0.5,1.7,3.7c0.4,2-3.5,1.4-3.5,1.4L150.9,139.5z"/>
	<path class="st7" d="M116.2,176.5l16.6-3.3c7.5-4.8,9.4-9.2,7.2-29l3.9-3.4c0,0,1.8-1.1,2.6,0.8c0,0,3.6,2.1,8.5,5.7
		c5,3.6,2.2,9.2,1.8,9.8c-0.3,0.6-5.4,9.7-5.4,9.7s-3.6,9.6-17.6,13.6c-14,4-38.9,7.4-42.9,7.7c-4.8,0.8-17.2,0.2-21.1-1.2
		c-1.5-8,3.2-32.1,45-27L116.2,176.5z"/>
	<path class="st7" d="M67.8,175.3l-4.5,0.3c0,0-1.8,2.7-1.2,5.4l3.3-0.6C65.3,180.4,65.7,177.7,67.8,175.3z"/>
	<path class="st7" d="M77.3,155l25.8-5c0,0,9.3-1.1,12,5.9c-7.2-2.1-29.1,0.7-35.2,5.8C79.9,161.7,76.9,157.8,77.3,155z"/>
	<path class="st7" d="M142.3,138.2l-4.3,2.7l-2.9-3.5c0,0-3.2,1.1-6.6,1.3c-1.9-0.1-2-2.4-0.6-3l5.6-1.1c0,0,2.4-4.7,5.1-1
		L142.3,138.2z"/>
	<path class="st7" d="M94,154.1l-22.9,4.5c-1.6,0.3-3.1-0.7-3.4-2.3L64,136.4c-0.3-1.6,0.7-3.1,2.3-3.4l22.9-4.5
		c1.6-0.3,3.1,0.7,3.4,2.3l3.7,19.9C96.6,152.2,95.5,153.8,94,154.1z"/>
	<g>
		<g>
			<path class="st9" d="M91.3,148.1c-4.5,0.9-7.1,1.4-11.6,2.3l-6.7-11.1l-3.6,0.7l-0.6-3l5.3-1l6.7,11.1c3.9-0.8,5.9-1.2,9.8-1.9
				C91,146.1,91.2,147.1,91.3,148.1z"/>
			<path class="st9" d="M89.2,144.4l-2.5,0.5c-0.2,0-0.5-0.1-0.5-0.3l-0.3-1.8c0-0.2,0.1-0.5,0.3-0.5l2.5-0.5c0.2,0,0.5,0.1,0.5,0.3
				l0.3,1.8C89.6,144.1,89.4,144.4,89.2,144.4z"/>
			<path class="st9" d="M84.4,145.3l-2.4,0.5c-0.2,0-0.5-0.1-0.5-0.3l-0.3-1.6c0-0.2,0.1-0.5,0.3-0.5l2.4-0.5c0.2,0,0.5,0.1,0.5,0.3
				l0.3,1.6C84.8,145,84.6,145.2,84.4,145.3z"/>
			<path class="st9" d="M86.8,140.9l-3.1,0.6c-0.2,0-0.5-0.1-0.5-0.3l-0.4-2c0-0.2,0.1-0.5,0.3-0.5l3.1-0.6c0.2,0,0.5,0.1,0.5,0.3
				l0.4,2C87.2,140.6,87,140.8,86.8,140.9z"/>
		</g>
		<g>
			<path class="st10" d="M81,142.3c0,0-7.5,17-9.8,1.2c0.8,3.8,2.7,10,8.6-3.2c-0.4-0.9-0.9-0.8-0.4-0.9c0.5-0.2,3.4-4.4,3.4-4.4
				s-1.5,7.7-1.3,8.1C81.8,143.5,81,142.3,81,142.3z"/>
			<path class="st10" d="M78,140.4c0,0-4.2,11.3-6.1,2.1c0.6,2.2,2,5.7,5.3-3.1c-0.3-0.5-0.6-0.4-0.3-0.5c0.3-0.2,2-3.1,2-3.1
				s-0.7,4.9-0.5,5.1C78.5,141,78,140.4,78,140.4z"/>
		</g>
	</g>
	<text transform="matrix(0.9444 0.5048 -0.457 0.8895 189.3843 181.3162)" class="st7 st11 st12">Hẹn Giờ</text>
	<text transform="matrix(0.6488 -0.8745 0.7916 0.611 308.6335 192.961)" class="st7 st11 st13">Hẹn Giờ</text>
	<g>
		<g>
			<path class="st14" d="M378.4,89.9c0.4-1.7-1.1-3.1-1.6-4.1c-0.5-0.8-0.8-2.1-1.6-2.6c0.2-1.1,1.1-1.9,0.8-3.5
				c-0.2-1.1-1-3.2-0.6-4.7c1.6-5,4.4-9.2,1-14.8c-0.4-0.6-1.1-0.9-1.7-1.4c-2.9-2.2-3.2,0.6-5.4,1.2c-0.4,0.1-1.4-0.4-2.2-0.4
				c-3.1,0-5.6,0.9-7,2.5c-1,1.2-1.7,3.8-1,5.9c0.2,0.5,0.7,1,0.5,1.7c-0.2,0.5-0.8,0.2-1.1,0c0,0-0.1,0.1-0.1,0.1
				c0.4,0.7,1,0.9,2,0.8c0.6,1.9,1.1,4,3.1,4.4c-0.1,0.3-0.1,0.6-0.2,1c-0.3,0.1-0.6,0.1-1,0.2c-0.1-0.2-0.1-0.3-0.2-0.5
				c-0.7,0.1-1,0.7-1.7,0.5c-0.7-0.2-1.6-0.9-2.9-0.6c-0.5,0.1-0.6,0.4-0.9,0.6c-1.4,0.7-3.8,0.7-5.2,1.1c-0.9,0.2-3.6,0.8-4.2,0.3
				c-0.7-0.5-0.4-3.9-0.6-5.1c-0.2-1.3,0.7-5.4,1.3-6.1c0.5-0.5,1.2-0.8,1.6-1.4c0.2-0.5,0.4-1.1,0.7-1.6c0.2-0.3,1.7-1.6,1.4-1.8
				h-1.1c-0.3,0.4-0.7,0.8-1,1.2h-0.7c0-0.5-0.1-1.1-0.1-1.6c-0.5-1-1-2.1-1.5-3.1h-0.6c0.1,0.6,0.3,1.2,0.4,1.7
				c-0.1,0-1.5-2-1.6-2.3c-0.6-0.1-0.5-0.1-0.8,0.4c0.5,0.6,0.7,1.7,1.2,2.3v0.7c-0.7-0.3-0.9-2-1.2-2.7c-0.2-0.3-0.2-0.2-0.5-0.4
				h-0.3c0,1.4-0.2,3.4,0.5,5c0.2,0.6,1.7,2,1.2,3c-1.3,2.9-2.2,6.7-2.9,10c-0.3,1.8,0,4.7,0.9,5.4c1,0.8,5.9,1,8.1,0.5
				c0.5-0.1,1.3-0.5,1.9-0.3c0.6,0.5,0.3,2.8,0.5,4c0.7,3.9-0.4,7.5-1.2,10.2c-0.3,1.1,0.2,2.3,0.7,2.7c-0.3,0.3-0.6,0.5-1,0.8
				c-0.1,1,0.4,1.4,0.4,2.1c-0.2,0.6-0.4,1.2-0.6,1.8c0.1,0.6,0.1,1.3,0.2,1.9c0,2.3,0,5,0.2,7.1c2.8,1.5,1.4,2.2,2.7,5.2
				c0.8,2.6,1.6,5.2,2.4,7.8c0.2,1.9,0.3,3.8,0.5,5.7v2.8c0.5,1.8,0.5,7.4-0.3,8.9c-0.3,0.7-0.5,2-1,2.8c-1.2,1.9-3.4,2.1-4.3,4.3
				c0.1,0.9,0.3,0.9,0.6,1.6c2,0.7,5.9,0.4,6.2-1.8h1.2c0-1.4,0.8-2.9,0.5-3.7c-0.2-0.2-0.4-0.3-0.6-0.5c-0.3-0.6,0.6-6.7,0.8-7.5
				c0.5-2.1,2.3-6.2,1.9-8.7c-0.1-1.3-0.2-2.6-0.3-4c-0.6-2.1-1.4-4.2-1.8-6.7c0.1-1.5,0.1-2.9,0.2-4.4c0.5-0.1,1-0.4,1.3,0
				c0.3,0.4,0.1,0.7,0.3,1.3c0.3,1.1,1.5,2.9,1.9,4.3c0.4,1.5,0.8,2.9,1.2,4.4c0.6,1.5,2.3,2.8,3.1,4.3c0.9,1.5,0.9,3.1,1.6,4.7
				c2.7,5.7,2.4,11.3,2.6,18.9h4.9c-0.1-3.6-2.2-4.5-1.9-8.2c-0.3-0.4-0.2-0.3-0.5-0.3c0.2-1.1,0-3.3-0.1-4.7
				c-0.3-3.5,0.2-6.1-0.7-8.8c-1.3-4.2-3.4-6.9-4.8-10.9c-0.9-2.4,0.2-5.5-0.7-7c0.5-0.4,1.4-0.9,1.7-1.5c1.4-2.6-2.3-9.1-2.4-11.9
				C370.8,96.3,377.8,92.1,378.4,89.9z M347.4,61.4h-0.2c0-0.4-0.1-0.8-0.1-1.2C347.3,60.5,347.4,60.8,347.4,61.4z M372.4,62.6
				c-0.1-0.1-0.2-0.1-0.3-0.2C372.4,62.5,372.2,62.4,372.4,62.6z M372.4,62.8c0.7,0.3,0.7,0.8,1,1.6c1,3,0.6,5.1-1.4,6.4
				c0-0.1-0.1-0.3-0.1-0.4C373.6,69.6,373.7,64.5,372.4,62.8z M371.6,70.8h0.2c-0.2,0.4-0.6,0.8-1,1.1
				C371,71.5,371.3,71.1,371.6,70.8z M366.5,73.7c1.6-0.2,3.2-1,4-1.7c0.1,0.1,0.2-0.1,0.2,0.2c0,0.3-0.6,0.8-0.7,1
				c-0.6,1.3-0.2,2.9-0.1,4.2c-0.3-0.2-0.2-0.2-0.8-0.3c-0.1-0.4-0.2-0.2,0-0.6c-0.9-0.2-1.4-0.5-2.1-0.2l-0.6-0.6V73.7z
				 M366.9,95.6c-0.1-1.4-2.7-2.7-1.9-5.2c0.5-1.5,1-3,1.5-4.6c0.5-0.8,1.4-1.7,1.4-2.6c0.3-0.1,0.6-0.3,0.9-0.4
				c0.3,0.3,0.7,0.6,1,1c0.3,0.5-0.2,1.4,0.1,2.1c0.5,1.2,1.7,1.5,3,1.5c0.4,0.5,0.8,1,1.1,1.5C373.1,90.4,368.7,95.2,366.9,95.6z"
				/>
		</g>
	</g>
	<path class="st15" d="M128.4,59"/>
	<path class="st16" d="M217.6,104.5c0,9-13.7,16.5-31.3,17.4c-1.2,0.1-2.4,0.1-3.7,0.1c-19.3,0-35-7.8-35-17.5s15.7-17.5,35-17.5
		S217.6,94.8,217.6,104.5z"/>
	<polygon class="st16" points="140.3,124.7 161.3,118.9 152.9,111.9 	"/>
	<path class="st16" d="M252,234c20.6-75-16.7-152.5-88.2-173C92.1,40.5,16.1,86.7,0,162c0-9.7,0-19.3,0-29c0-15.3,0-30.7,0-46
		C46.1,34.5,117.8,9.8,179.4,29c77,24,129.1,114.2,116.7,205C282,235,266,233,252,234z"/>
	<text transform="matrix(0.7615 -0.6373 0.6268 0.7792 13.5723 99.5)" class="st3 st11 st17">8h - 10h</text>
	<text transform="matrix(0.4141 0.9209 -0.9058 0.4238 243.6164 106.6698)" class="st3 st11 st18">16h - 20h</text>
	<text transform="matrix(1.202744e-02 1.0167 -0.9999 1.230720e-02 268.7343 166.5344)" class="st3 st11 st19">20h - 22h</text>
	<text transform="matrix(0.726 0.6806 -0.6694 0.7429 198.003 62.2415)" class="st3 st11 st20">14h - 16h</text>
	<text transform="matrix(0.9478 0.2477 -0.2437 0.9699 132.9734 43.9561)" class="st3 st11 st21">12h - 14h</text>
	<text transform="matrix(0.9367 -0.2898 0.285 0.9585 61.7032 60.6557)" class="st3 st11 st22">10h - 12h</text>
	<g>
		<path class="st16" d="M343.4,38.6c-0.8,6.7-19.5,10.1-42.9,8c-1.6-0.1-3.2-0.3-4.9-0.5c-25.5-3-45.6-11.3-44.8-18.5
			c0.8-7.2,22.2-10.5,47.7-7.5S344.2,31.5,343.4,38.6z"/>
		<polygon class="st16" points="337.3,61.4 329.5,43 316.9,46.6 		"/>
	</g>
	<text transform="matrix(0.9692 0.1305 -0.1283 0.9917 269.684 35.1665)" class="st3 st11 st23">20h - 22h</text>
	<text transform="matrix(0.9768 3.131671e-02 -3.080077e-02 0.9995 158.1042 107.8999)" class="st3 st11 st24">20h - 22h</text>
</g>
</svg>
