<?xml version="1.0" encoding="utf-8"?>
<!-- Generator: Adobe Illustrator 22.0.1, SVG Export Plug-In . SVG Version: 6.00 Build 0)  -->
<svg version="1.1" id="Layer_1" xmlns="http://www.w3.org/2000/svg" xmlns:xlink="http://www.w3.org/1999/xlink" x="0px" y="0px"
	 viewBox="0 0 70 56" style="enable-background:new 0 0 70 56;" xml:space="preserve">
<style type="text/css">
	.st0{fill:#FFFFFF;}
	.st1{fill:#3FA012;}
	.st2{stroke:#000000;stroke-miterlimit:10;}
</style>
<g>
	<path class="st0" d="M3.8,16.1C-0.1,5.6,14.2-4.2,29.4,4.1c-8.8,0.7-12.2,2.6-14.5,3.6c1.6,1.6,1.6,1.6,1.6,1.6S26,5.1,33.7,5.2
		V4.7c0,0-2,0-2.3-0.3c-0.4-0.3-0.2-0.9-0.2-0.9s3.8-1.2,6.8,0c0,0.7,0,0.9,0,0.9s-1.4,0.3-2.5,0.3c0,0.8-0.2,0.5-0.2,0.5
		s9-0.3,16.7,3.4c1.1-1.1,1.4-1.2,1.4-1.2s-9.1-3.5-13.8-3.2c11.3-6.5,29.7-2.2,25.6,12c-4.7-4.9-9-7.4-10.4-8
		C54,9,53.6,9.4,53.6,9.4s13.6,5.5,14.9,19.8c0,11.5-7.2,16.9-12.9,20.9c2.5,2.8,4.8,4.7,5.7,5.1c-0.4,0.3-6.1,1.8-9-3.6
		c-7.2,3.4-20.2,6.1-34.2,0c-2,5.8-9.1,3.6-9,3.8c0.2,0.1,4.5-2.7,6.1-5.3c-15.6-8.9-19-29-0.4-39.5c-0.9-1.2-0.5-0.9-1.8-1.8
		C11.9,9.4,7.9,11.8,3.8,16.1z"/>
	<path class="st0" d="M34.4,7.9l0.9,21.7l25.8-9.8C61.1,19.8,54,8,34.4,7.9z"/>
	<path class="st0" d="M61.1,39.9L35.3,29.6l25.8-9.8C61.1,19.8,68.5,29.6,61.1,39.9z"/>
	<path class="st0" d="M9.4,40.4l26-10.8l25.8,10.2C52,53.8,23.7,57.8,9.4,40.4z"/>
	<path class="st0" d="M8.6,20.6l26.7,9L34.4,7.9C34.4,7.9,17.1,7.6,8.6,20.6z"/>
	<ellipse transform="matrix(1.065361e-03 -1 1 1.065361e-03 5.4774 64.7145)" class="st1" cx="35.1" cy="29.6" rx="0.7" ry="1"/>
	<line class="st2" x1="34.6" y1="17.5" x2="35.1" y2="29.6"/>
	<polygon points="32.1,20.1 34.6,13.4 37.6,20 34.7,17.8 	"/>
	<line class="st2" x1="44.8" y1="26" x2="35.3" y2="29.6"/>
	<polygon points="41.8,25.3 48.1,24.8 43.8,28.3 44.6,26.1 	"/>
	<ellipse transform="matrix(1.065361e-03 -1 1 1.065361e-03 24.7461 44.3422)" cx="34.6" cy="9.8" rx="1.3" ry="1.8"/>
	<ellipse transform="matrix(1.065361e-03 -1 1 1.065361e-03 35.6428 62.1395)" cx="48.9" cy="13.2" rx="1.3" ry="1.8"/>
	<ellipse transform="matrix(1.065361e-03 -1 1 1.065361e-03 38.1328 79.4573)" cx="58.8" cy="20.6" rx="1.3" ry="1.8"/>
	<ellipse transform="matrix(1.065361e-03 -1 1 1.065361e-03 31.259 90.9439)" cx="61.1" cy="29.8" rx="1.3" ry="1.8"/>
	<ellipse transform="matrix(1.065361e-03 -1 1 1.065361e-03 19.657 97.6536)" cx="58.7" cy="39" rx="1.3" ry="1.8"/>
	<ellipse transform="matrix(1.065361e-03 -1 1 1.065361e-03 3.1757 96.4216)" cx="49.9" cy="46.6" rx="1.3" ry="1.8"/>
	<ellipse transform="matrix(1.065361e-03 -1 1 1.065361e-03 -14.6235 85.0085)" cx="35.2" cy="49.8" rx="1.3" ry="1.8"/>
	<ellipse transform="matrix(1.065361e-03 -1 1 1.065361e-03 -25.1846 69.0101)" cx="21.9" cy="47.1" rx="1.3" ry="1.8"/>
	<ellipse transform="matrix(1.065361e-03 -1 1 1.065361e-03 -28.2847 50.5365)" cx="11.2" cy="39.4" rx="1.3" ry="1.8"/>
	<ellipse transform="matrix(1.065361e-03 -1 1 1.065361e-03 -20.4924 39.0762)" cx="9.3" cy="29.8" rx="1.3" ry="1.8"/>
	<ellipse transform="matrix(1.065361e-03 -1 1 1.065361e-03 -10.905 32.0113)" cx="10.6" cy="21.5" rx="1.3" ry="1.8"/>
	<ellipse transform="matrix(1.065361e-03 -1 1 1.065361e-03 5.5272 33.1238)" cx="19.3" cy="13.8" rx="1.3" ry="1.8"/>
</g>
</svg>
