<?xml version="1.0" ?><svg viewBox="0 0 64 64" xmlns="http://www.w3.org/2000/svg"><defs><style>.cls-1{fill:none;stroke:#36384b;stroke-linejoin:round;stroke-width:2px;}</style></defs><title/><g data-name="19-Document List" id="_19-Document_List"><polygon class="cls-1" points="46 1 6 1 6 63 58 63 58 13 46 1"/><path class="cls-1" d="M46,1V12a1,1,0,0,0,1,1H58"/><line class="cls-1" x1="11" x2="23" y1="6" y2="6"/><line class="cls-1" x1="11" x2="13" y1="10" y2="10"/><line class="cls-1" x1="16" x2="18" y1="10" y2="10"/><g data-name="&lt;Group&gt;" id="_Group_"><rect class="cls-1" height="6" width="6" x="14" y="18"/><rect class="cls-1" height="6" width="6" x="14" y="29"/><rect class="cls-1" height="6" width="6" x="14" y="40"/><rect class="cls-1" height="6" width="6" x="14" y="51"/></g><line class="cls-1" x1="26" x2="28" y1="19" y2="19"/><line class="cls-1" x1="30" x2="32" y1="19" y2="19"/><line class="cls-1" x1="26" x2="50" y1="23" y2="23"/><line class="cls-1" x1="26" x2="28" y1="30" y2="30"/><line class="cls-1" x1="30" x2="32" y1="30" y2="30"/><line class="cls-1" x1="26" x2="50" y1="34" y2="34"/><line class="cls-1" x1="26" x2="28" y1="41" y2="41"/><line class="cls-1" x1="30" x2="32" y1="41" y2="41"/><line class="cls-1" x1="26" x2="50" y1="45" y2="45"/><line class="cls-1" x1="26" x2="28" y1="52" y2="52"/><line class="cls-1" x1="30" x2="32" y1="52" y2="52"/><line class="cls-1" x1="26" x2="50" y1="56" y2="56"/></g></svg>