<?xml version="1.0" encoding="iso-8859-1"?>
<!-- Generator: Adobe Illustrator 16.0.0, SVG Export Plug-In . SVG Version: 6.00 Build 0)  -->
<!DOCTYPE svg PUBLIC "-//W3C//DTD SVG 1.1//EN" "http://www.w3.org/Graphics/SVG/1.1/DTD/svg11.dtd">
<svg version="1.1" id="Capa_1" xmlns="http://www.w3.org/2000/svg" xmlns:xlink="http://www.w3.org/1999/xlink" x="0px" y="0px"
	 width="529.301px" height="529.301px" viewBox="0 0 529.301 529.301" style="enable-background:new 0 0 529.301 529.301;"
	 xml:space="preserve">
<g>
	<g>
		<path d="M503.101,59.051h-20.199c-14.7,0-26.301,11.6-26.301,26.3v45.9H72.8v-45.9c0-14.7-11.6-26.3-26.3-26.3H26.3
			c-14.7,0-26.3,11.6-26.3,26.3v358.601c0,14.698,11.6,26.299,26.3,26.299h20.2c14.7,0,26.3-11.601,26.3-26.299v-45.9h383.7v45.9
			c0,14.698,11.601,26.299,26.3,26.299H503c14.7,0,26.3-11.601,26.3-26.299V85.351C529.4,70.651,517.8,59.051,503.101,59.051z
			 M167.1,302.551c-6.1,4.9-13.5,7.301-23.3,7.301c-14.1,0-26.9-4.899-37.9-15.301l11.6-14.699c9.8,8,18.4,12.898,26.3,12.898
			c3.7,0,6.7-1.199,8.6-2.398c1.8-1.201,3.1-3.701,3.1-6.102c0-3.101-1.2-4.898-3.1-6.699c-2.4-1.199-6.7-3.1-12.9-4.9
			c-10.4-2.399-17.7-5.5-22.6-9.2c-4.9-4.3-7.3-10.4-7.3-18.4c0-8.6,3.1-14.7,9.2-19.6c6.1-4.9,13.5-6.7,22.6-6.7
			c6.1,0,11.6,0.6,17.7,2.4c6.1,1.8,11,5.5,15.3,9.2l-10.4,14.1c-7.3-6.1-15.3-8.6-23.9-8.6c-3.1,0-6.1,0.6-8,1.8
			c-1.8,1.8-3.1,3.7-3.1,6.1c0,2.4,1.2,4.3,3.7,6.1c2.4,1.2,8,3.7,16.5,5.5c8.6,2.4,14.7,5.5,19.6,9.2c4.9,4.301,7.3,10.4,7.3,18.4
			C176.3,290.951,172.6,297.65,167.1,302.551z M255.8,309.352l-8-19h-36.7l-8.6,19h-20.8l38.6-88.701h19l37.9,88.701H255.8z
			 M344.601,309.352h-57.5v-88.701H307.3v71h37.9v17.701H344.601z M424.101,309.352h-64.899v-88.701h64.3v17.7h-44.1v18.3h39.8
			v17.099h-39.8v18.399h45.3v17.101h-0.601V309.352z M229.5,246.951l11,25.7h-22L229.5,246.951z"/>
	</g>
</g>
<g>
</g>
<g>
</g>
<g>
</g>
<g>
</g>
<g>
</g>
<g>
</g>
<g>
</g>
<g>
</g>
<g>
</g>
<g>
</g>
<g>
</g>
<g>
</g>
<g>
</g>
<g>
</g>
<g>
</g>
</svg>
