<?xml version="1.0" encoding="utf-8"?>
<!-- Generator: Adobe Illustrator 22.0.1, SVG Export Plug-In . SVG Version: 6.00 Build 0)  -->
<svg version="1.1" id="Layer_1" xmlns="http://www.w3.org/2000/svg" xmlns:xlink="http://www.w3.org/1999/xlink" x="0px" y="0px"
	 viewBox="0 0 25 25" style="enable-background:new 0 0 25 25;" xml:space="preserve">
<style type="text/css">
	.st0{fill:#DC4A38;}
	.st1{fill:#FFFFFF;}
</style>
<g>
	<path class="st0" d="M24.2,0H0.8C0.3,0,0,0.4,0,0.8v23.4C0,24.6,0.3,25,0.8,25h23.4c0.4,0,0.8-0.4,0.8-0.8V0.8
		C25,0.4,24.7,0,24.2,0z"/>
	<g>
		<path class="st1" d="M13.1,13.7l-0.8-0.6c-0.2-0.2-0.6-0.5-0.6-1c0-0.5,0.3-0.8,0.6-1.1c0.9-0.7,1.8-1.5,1.8-3.2
			c0-1.7-1-2.6-1.6-3H14l1.4-0.9h-4.3C9.9,3.9,8.2,4.2,7,5.2c-0.9,0.8-1.4,2-1.4,3c0,1.7,1.3,3.5,3.6,3.5c0.2,0,0.5,0,0.7,0
			c-0.1,0.3-0.2,0.5-0.2,0.9c0,0.7,0.3,1.1,0.7,1.5c-1,0.1-2.8,0.2-4.2,1c-1.3,0.8-1.7,1.9-1.7,2.7c0,1.7,1.5,3.2,4.7,3.2
			c3.8,0,5.8-2.1,5.8-4.2C15,15.3,14.1,14.6,13.1,13.7z M10.3,11.1c-1.9,0-2.7-2.5-2.7-4C7.5,6.6,7.6,6,8,5.5C8.4,5,9,4.7,9.5,4.7
			c1.8,0,2.8,2.5,2.8,4.1c0,0.4,0,1.1-0.5,1.6C11.4,10.9,10.8,11.1,10.3,11.1z M10.3,20.2c-2.3,0-3.9-1.1-3.9-2.7
			c0-1.6,1.4-2.1,1.9-2.3c0.9-0.3,2.1-0.4,2.3-0.4c0.2,0,0.3,0,0.5,0c1.7,1.2,2.4,1.8,2.4,3C13.5,19.1,12.4,20.2,10.3,20.2z"/>
		<polygon class="st1" points="18.7,11.1 18.7,8.9 17.6,8.9 17.6,11.1 15.4,11.1 15.4,12.2 17.6,12.2 17.6,14.5 18.7,14.5 
			18.7,12.2 20.9,12.2 20.9,11.1 		"/>
	</g>
</g>
</svg>
