<?xml version="1.0" encoding="utf-8"?>
<!-- Generator: Adobe Illustrator 22.0.1, SVG Export Plug-In . SVG Version: 6.00 Build 0)  -->
<svg version="1.1" id="Layer_1" xmlns="http://www.w3.org/2000/svg" xmlns:xlink="http://www.w3.org/1999/xlink" x="0px" y="0px"
	 viewBox="0 0 50 50" style="enable-background:new 0 0 50 50;" xml:space="preserve">
<style type="text/css">
	.st0{fill:#A73A3A;}
	.st1{fill:none;stroke:#FFFFFF;stroke-miterlimit:10;}
	.st2{fill:#FFFFFF;}
	.st3{fill:#FFFFFF;stroke:#FFFFFF;stroke-miterlimit:10;}
</style>
<g>
	<ellipse class="st0" cx="25" cy="25" rx="25" ry="25"/>
	<circle class="st1" cx="25.3" cy="25.2" r="21.2"/>
	
		<ellipse transform="matrix(2.104660e-02 -0.9998 0.9998 2.104660e-02 -0.2917 49.7672)" class="st2" cx="25.3" cy="25" rx="0.6" ry="0.6"/>
	<line class="st3" x1="25" y1="15.4" x2="25.3" y2="25.1"/>
	<polygon class="st2" points="23.4,17.4 24.9,12.1 26.8,17.4 25,15.6 	"/>
	<line class="st3" x1="31.3" y1="22.1" x2="25.4" y2="25"/>
	<polygon class="st2" points="29.4,21.6 33.3,21.1 30.6,24 31.1,22.2 	"/>
	
		<ellipse transform="matrix(2.104660e-02 -0.9998 0.9998 2.104660e-02 15.2082 33.9099)" class="st2" cx="24.9" cy="9.2" rx="1.1" ry="1.1"/>
	
		<ellipse transform="matrix(2.104660e-02 -0.9998 0.9998 2.104660e-02 21.1331 45.4646)" class="st2" cx="33.8" cy="11.9" rx="1.1" ry="1.1"/>
	
		<ellipse transform="matrix(2.104660e-02 -0.9998 0.9998 2.104660e-02 21.2031 57.3804)" class="st2" cx="39.9" cy="17.9" rx="1.1" ry="1.1"/>
	
		<ellipse transform="matrix(2.104660e-02 -0.9998 0.9998 2.104660e-02 15.2649 65.9906)" class="st2" cx="41.3" cy="25.2" rx="1.1" ry="1.1"/>
	
		<ellipse transform="matrix(2.104660e-02 -0.9998 0.9998 2.104660e-02 6.4705 71.6488)" class="st2" cx="39.8" cy="32.5" rx="1.1" ry="1.1"/>
	
		<ellipse transform="matrix(2.104660e-02 -0.9998 0.9998 2.104660e-02 -4.9795 72.1525)" class="st2" cx="34.4" cy="38.6" rx="1.1" ry="1.1"/>
	
		<ellipse transform="matrix(2.104660e-02 -0.9998 0.9998 2.104660e-02 -16.3683 65.6387)" class="st2" cx="25.3" cy="41.2" rx="1.1" ry="1.1"/>
	
		<ellipse transform="matrix(2.104660e-02 -0.9998 0.9998 2.104660e-02 -22.2318 55.3154)" class="st2" cx="17.1" cy="39" rx="1.1" ry="1.1"/>
	
		<ellipse transform="matrix(2.104660e-02 -0.9998 0.9998 2.104660e-02 -22.6181 42.6411)" class="st2" cx="10.5" cy="32.9" rx="1.1" ry="1.1"/>
	
		<ellipse transform="matrix(2.104660e-02 -0.9998 0.9998 2.104660e-02 -16.0377 33.9732)" class="st2" cx="9.3" cy="25.2" rx="1.1" ry="1.1"/>
	
		<ellipse transform="matrix(2.104660e-02 -0.9998 0.9998 2.104660e-02 -8.6231 28.2333)" class="st2" cx="10.1" cy="18.5" rx="1.1" ry="1.1"/>
	
		<ellipse transform="matrix(2.104660e-02 -0.9998 0.9998 2.104660e-02 2.8041 27.6501)" class="st2" cx="15.5" cy="12.4" rx="1.1" ry="1.1"/>
</g>
</svg>
