<?xml version="1.0" encoding="utf-8"?>
<!-- Generator: Adobe Illustrator 22.0.1, SVG Export Plug-In . SVG Version: 6.00 Build 0)  -->
<svg version="1.1" id="Layer_1" xmlns="http://www.w3.org/2000/svg" xmlns:xlink="http://www.w3.org/1999/xlink" x="0px" y="0px"
	 viewBox="0 0 390 65" style="enable-background:new 0 0 390 65;" xml:space="preserve">
<style type="text/css">
	.st0{fill:#E2AA3B;}
	.st1{fill:#8537A5;}
	.st2{fill:#07382F;}
	.st3{font-family:'MyriadPro-Regular';}
	.st4{font-size:13.8136px;}
	.st5{fill:#FFFFFF;}
</style>
<g>
	<g>
		<g>
			<path class="st0" d="M387.4,65c-16,0-25.7,0-41.7,0l-16-42.4h-12.8V12h19.3l16,42.4c13.9,0,21.4,0,35.3,0
				C387.4,57.9,387.4,61.5,387.4,65z"/>
			<path class="st0" d="M383.4,50.9h-11.1c-0.2,0-0.4-0.2-0.4-0.4V42c0-0.2,0.2-0.4,0.4-0.4h11.1c0.2,0,0.4,0.2,0.4,0.4v8.4
				C383.9,50.7,383.7,50.9,383.4,50.9z"/>
			<path class="st0" d="M366.1,50.6h-10.7c-0.2,0-0.4-0.2-0.4-0.4v-7.9c0-0.2,0.2-0.4,0.4-0.4h10.7c0.2,0,0.4,0.2,0.4,0.4v7.9
				C366.6,50.4,366.4,50.6,366.1,50.6z"/>
			<path class="st0" d="M377.4,37.1h-13.3c-0.2,0-0.4-0.2-0.4-0.4v-9.1c0-0.2,0.2-0.4,0.4-0.4h13.3c0.2,0,0.4,0.2,0.4,0.4v9.1
				C377.8,37,377.7,37.1,377.4,37.1z"/>
		</g>
		<g>
			<path class="st1" d="M355.2,38.3c0,0-37.2,52.9-34.7-2.3c0.3,13.4,2.7,35.7,32.1-5.3c-0.8-3.5-2.7-3.3-0.8-3.5
				c1.9-0.2,14.8-12.6,14.8-12.6s-10.3,25.3-9.9,26.8S355.2,38.3,355.2,38.3z"/>
			<path class="st1" d="M346,29.7c0,0-21.9,35.8-22.6,2.9c0.8,7.8,3.3,20.7,20.6-7.1c-0.7-2-1.9-1.6-0.7-2c1.3-0.3,9-9.3,9-9.3
				s-5.6,16.2-5.2,17C347.4,32.2,346,29.7,346,29.7z"/>
		</g>
	</g>
	<text transform="matrix(1 0 0 1 85.2085 61.5586)" class="st2 st3 st4">thời gian vàng - mang theo chất lượng !!!</text>
	<g>
		<path class="st0" d="M290.4,0"/>
		<path class="st0" d="M83.2,4.8v7.4h-2.3v6h2.3V31c0,0-1.7,7.7,8.3,6.8c0-6.6,0-6.8,0-6.8s-2.6,1.4-2.6-2.9s0-10.3,0-10.3h2.9v-5.7
			h-2.9V4.8H83.2z"/>
		<g>
			<path class="st0" d="M103.5,11.8c0,0-9.1-0.6-8.9,12.2c-0.6,12,4.8,14.3,8.8,14.3s10.6-0.8,10.3-12.8
				C113.7,13.6,109.7,12.2,103.5,11.8z"/>
			<path class="st5" d="M104.3,18.7c0,0-3.4-0.4-3.6,5.6c-0.1,5.8,1.7,7.4,4,7.4c3.1,0,3.7-2.9,3.7-6
				C108.5,23.1,108.3,18.7,104.3,18.7z"/>
		</g>
		<polygon class="st0" points="117.1,2.5 117.3,38.4 123.1,38.4 123.1,33.3 126.2,28.5 130.5,38.4 137.3,38.4 130.2,22.5 
			136.5,12.8 129.9,12.8 123.1,23.9 123.1,2.5 		"/>
		<g>
			<path class="st0" d="M144.7,27.8c0.3,3.4,4.3,6,8.8,2.3c2.9,3.1,4,4,4,4c-2.3,3.7-14.3,8-18-2.9c-1.4-12.5,0.6-18.8,8.6-19.7
				c5.1-0.3,10,2.9,9.7,16C150.2,27.7,146.7,27.8,144.7,27.8z"/>
			<path class="st5" d="M144.7,23h7.7c0,0,0-5.4-4-5.1C144.4,18.1,144.7,22.7,144.7,23z"/>
		</g>
		<g>
			<rect x="162.3" y="13.1" class="st0" width="6" height="25.4"/>
			<rect x="162.3" y="2.8" class="st0" width="6" height="6.6"/>
		</g>
		<g>
			<rect x="223.3" y="12.4" class="st0" width="6" height="26.2"/>
			<rect x="223.3" y="1.8" class="st0" width="6" height="6.8"/>
		</g>
		<rect x="258.4" y="31.9" class="st0" width="6" height="6.6"/>
		<path class="st0" d="M191.1,20.2c-0.9-0.9-7.3-4-9.4-0.6c-0.6,1.7,0.8,2,4.2,2.6c3.4,0.6,7.2,0,8.6,5.2s-1.5,10-6.6,10.8
			c-5.1,0.8-9.4-0.1-12.8-3.2c3.5-5.4,3.7-5.6,3.7-5.6c1.1,1.1,5.1,3.7,9.4,2.3c2-1.1,2-3.4-3.7-4c-2.3-0.2-5.4-1.1-6.6-2.3
			c-0.9-0.9-2.6-5.4-0.6-9.4c3.1-5.4,12-4.6,17.1-0.6C191.3,19.6,191.1,20.2,191.1,20.2z"/>
		<path class="st0" d="M204.6,38.1v-16c0-3.7,6-4.8,6.6,0.3c0,7.4,0,16,0,16h6V21.6c0-9.1-8.8-12.8-12.5-6c0-5.7,0-13.1,0-13.1h-6
			v35.6H204.6z"/>
		<polygon class="st0" points="269.9,13.3 274.2,28.7 278.4,13.3 284.4,13.3 276.2,39 271.9,39 263.9,13.3 		"/>
		<path class="st0" d="M292.6,39.1V22.9c0-3.7,6.6-4.8,6.6,0c0,6.3,0,16.3,0,16.3h6V21.7c0-2.6-0.8-8.4-6.3-8.6
			c-5.4-0.2-6,3.1-6,3.1v-2.9h-6v25.7H292.6z"/>
		<g>
			<path class="st0" d="M241.1,35.3c0.3,1.7,5.4,5.7,10,0.9c2.6-4,2.3-6.9,2.3-11.1c0-5.6-0.3-10.3-4.6-12.5
				c-5.3-2.3-7.7,2.9-7.7,2.9v-3.1h-6v36.2h6V35.3z"/>
			<path class="st5" d="M245.6,18.1c-2.6,0.3-3.1,1.7-3.1,6.6c0,6.3,0.9,6.6,2.9,6.8c2.6,0.3,3.7-1.7,3.7-6.8
				C249,21,248.2,18.1,245.6,18.1z"/>
		</g>
	</g>
	<g>
		<polygon class="st0" points="47.2,13.5 38.4,13.6 47.2,13.7 		"/>
		<g>
			<g>
				<g>
					<path class="st0" d="M66.9,49.7h15.3c0,0-1.4-6.2-9.9-6.4L66.9,49.7z"/>
					<path class="st0" d="M80.9,51.8h-3.3c1.5,4.8-9.2,8.4-9.2,0h-3.7v2.5c1.5,6.2,13.4,7.4,16.2,0V51.8z"/>
					<path class="st0" d="M68.6,32.8h3.6c0,0,0.7,0.4,0.6,2.2c0,1.1-2.1,0.4-2.1,0.4L68.6,32.8z"/>
					<path class="st0" d="M45.8,49h9.4c4.6-1.8,6.1-3.9,6.9-14.8l2.5-1.4c0,0,1.1-0.4,1.4,0.7c0,0,1.7,1.5,4.1,4
						c2.4,2.5,0.2,5.1,0,5.4c-0.2,0.3-4,4.6-4,4.6s-3,4.7-11,5.4c-8.1,0.7-22.1-0.1-24.3-0.4c-2.7-0.1-9.4-1.7-11.4-2.9
						c0-4.4,5.1-16.9,27.4-9.8L45.8,49z"/>
					<path class="st0" d="M37.5,54.7h-3.3c-1.2,2-6.7,3.9-9.4-1.4l-3-0.7C20.5,58.2,32.7,63.7,37.5,54.7z"/>
					<path class="st0" d="M19.4,43.3L16.9,43c0,0-1.2,1.3-1.2,2.8h1.9C17.6,45.8,18.1,44.4,19.4,43.3z"/>
					<path class="st0" d="M26.7,33.4h14.6c0,0,5.2,0.4,6,4.4c-3.7-1.9-16-2.7-19.8-0.6C27.5,37.3,26.2,34.9,26.7,33.4z"/>
					<path class="st0" d="M64.1,31.2l-2.6,1l-1.2-2.2c0,0-1.9,0.2-3.7,0c-1-0.3-0.9-1.5,0-1.7h3.2c0,0,1.8-2.3,2.9,0L64.1,31.2z"/>
				</g>
				<path class="st0" d="M54,18.1l-0.8,0.7c0,0-2.6-1.4-5,0.3c0,0-2,0.9-2.8,2.4c-0.8,1.5-1.9,1.6-4.1,1.6c-2.1,0.1-3.8,3.6-3.8,3.6
					l4,1.4c0,0-2.8,2.2-1.9,4c0.9,1.8,7.7,2.5,12.9,2.4c-3.1,2.5-3,7.2-5.1,10.9c0,0-0.6,1.6-0.6,1.9c0,0-0.6,0.3-0.4,1
					c0,0,1.4,0.8,3.6,0.7c0,0,1-2-2.1-1.3l0.6-1.3l0.4,0.3c0,0,2-3,2.5-3.9c0.5-0.8,3.1-5.6,3.3-6.5c0.2-0.9,2.6-3.3-7.3-6.4
					l1.4-1.6c0,0,4.3,2.5,5,2.6c0,0,0.6-1.6,1.3-1.6l0.9,0.1c0,0,2.7-1.2,1.7,1.1c0,0,0.8,0.3,1.5,0.1c0,0,0.9-0.4,0.5-1
					c0,0-0.5-1.5-3-1h-0.8l-0.1-0.3c0,0-4.2-1.7-5.1-1.7c0,0,5.5-2.3,4.8-5.8c0,0,0.2-0.5-0.4-0.8l0.7-0.8L54,18.1z"/>
				<path class="st0" d="M55.5,20.2l-2.8-1.5c0,0,0.4-0.1,0.6-0.6L53,18.1l0.2-0.2l-0.2,0l0.1-0.2c0,0-0.2,0.1-0.2,0
					c0-0.1,0-0.4,0.2-0.6c0,0,0.2,0.3,0.5,0.1c0,0,0-0.7,0.1-1.3c0.2-0.5,0.5-0.9,2-1.2c0,0,0.3-0.3,0.7,0c0.8-0.1,1.7,0,2.5,1.1
					c0,0,0.4-0.1,0.7,0.8l2,0c0,0-0.9,0.6-1.8,0.8c0,0-0.2,0.8-0.6,0.9c0,0-0.3,0.2-0.1,0.4c0,0,0.2,0.5-0.2,0.8l-0.4-0.1
					c-0.1,0.3,0.2,0.4-0.5,0.5c0,0,0.2,0.4-0.3,0.3c-0.1,0.2-0.3,0.8-1.3-0.1C56.5,19.9,55.9,19.7,55.5,20.2z"/>
			</g>
			<path class="st0" d="M34.6,34.7H24.3c-1.6,0-2.9-1.3-2.9-2.9v-8.4c0-1.6,1.3-2.9,2.9-2.9h10.3c1.6,0,2.9,1.3,2.9,2.9v8.4
				C37.6,33.4,36.2,34.7,34.6,34.7z"/>
			<polygon class="st0" points="7.3,23.4 19.4,22.9 19.4,23.4 			"/>
			<polygon class="st0" points="29.5,18.4 41.5,17.9 41.5,18.4 			"/>
			<polygon class="st0" points="2.2,30 14.3,29.6 13.4,30 			"/>
			<polygon class="st0" points="12,35.5 19.4,35.2 18.6,36 			"/>
		</g>
	</g>
</g>
</svg>
