<svg id="Layer_1" data-name="Layer 1" xmlns="http://www.w3.org/2000/svg" viewBox="0 0 107.75 74.11"><defs><style>.cls-1{fill:#020202;}.cls-2{fill:#3fa012;}.cls-3{fill:#fff;}.cls-4{fill:#212121;}.cls-5{font-size:14.42px;fill:#39870f;font-family:MyriadPro-Regular, Myriad Pro;}</style></defs><title>mienphithuho</title><polygon class="cls-1" points="35.25 3.35 23.45 15.74 89.89 15.74 80.45 3.35 35.25 3.35"/><path class="cls-2" d="M104.57,17s16.06,46.11-18,27.05c8.71,3.85,24.1,8.84,11.92-27.29-2.59-.46-3.4,1.15-2.59-.46s-1-15.71-1-15.71,11.24,16.06,12.42,16.17S104.57,17,104.57,17Z" transform="translate(-0.61 -0.55)"/><path class="cls-3" d="M42.14,5s.39,2.75-6.29,2.48c-2.75,3.3-4.32,5.23-4.32,5.23s7.08-.28,4.32,1.93H52s-11.4-5,2.36-9.63Z" transform="translate(-0.61 -0.55)"/><path class="cls-3" d="M62.19,5s13,5.5.79,9.63H79.1s-2.75-1.93,4.32-1.93a56.46,56.46,0,0,1-3.54-5.5S73.2,6.93,74.38,5Z" transform="translate(-0.61 -0.55)"/><path class="cls-3" d="M57.08,6.66v.83c-1.57-.28-7.86,1.93,0,2.75,6.29,1.65-2.84,1.41-3.93,1.34-.27,0,0,0,1.18,0v-.28H53.15v1.1H56.3v1.1h2.36v-1.1c.79.28,9.43-1.65-.39-3-5.11-.83-.79-1.1,2-1.1v.28h1.18V8h.39V7.48H59V6.66Z" transform="translate(-0.61 -0.55)"/><rect x="23.45" y="17.51" width="66.43" height="1.38"/><rect x="23.45" y="20.48" width="66.43" height="1.38"/><rect x="23.45" y="23.45" width="66.43" height="1.38"/><path class="cls-4" d="M90.1,30.07s-2.61-3.14-10.7.56c-9.47,3.39-9,3.59-11.69,4.35,0,0-.36.83-6.71,1.13s-19.61-.51-19.61-.51-2.9-.64-.53-1.6c3.86.1,4,.29,10.81.28,7.56.38,8.9-4.15,3-5.7-6.79-.27-26.71-.79-26.71-.79s-12.35-.42-18.17,9.59c-7.05,9.88-5.36,7.22-5.36,7.22s24,2.3,27.1,2.11c3-1.13,1.08-2.77,11.59-2.49l19,.5s6.94.27,18.28-6C92,32.92,92.09,33.3,90.1,30.07Z" transform="translate(-0.61 -0.55)"/><polygon class="cls-4" points="32.46 48.17 0.89 45.76 0.64 50.13 32.3 50.96 32.46 48.17"/><text class="cls-5" transform="translate(0 70.5) scale(1.02 1)">miễn phí thu hộ</text></svg>