<?xml version="1.0" encoding="utf-8"?>
<!-- Generator: Adobe Illustrator 22.0.1, SVG Export Plug-In . SVG Version: 6.00 Build 0)  -->
<svg version="1.1" id="Layer_1" xmlns="http://www.w3.org/2000/svg" xmlns:xlink="http://www.w3.org/1999/xlink" x="0px" y="0px"
	 viewBox="0 0 930 345" style="enable-background:new 0 0 930 345;" xml:space="preserve">
<style type="text/css">
	.st0{fill:none;stroke:#39870F;stroke-width:2;stroke-miterlimit:10;}
	.st1{fill:none;stroke:#9A139E;stroke-width:3;stroke-miterlimit:10;}
	.st2{fill:#39870F;}
	.st3{fill:#FCFCFC;}
	.st4{font-family:'MyriadPro-Regular';}
	.st5{font-size:13.8648px;}
	.st6{fill:#E2AA3B;}
	.st7{font-size:13.864px;}
	.st8{font-size:13.865px;}
	.st9{fill:#FFFFFF;}
	.st10{fill:#A73A3A;}
	.st11{font-size:13.8639px;}
	.st12{fill:#9924A3;stroke:#9A139E;stroke-width:3;stroke-miterlimit:10;}
	.st13{font-size:15.8445px;}
</style>
<g>
	<line class="st0" x1="407.2" y1="271.6" x2="534.5" y2="269.1"/>
	<ellipse class="st1" cx="475.6" cy="174.4" rx="377.1" ry="133.4"/>
	<g>
		<g>
			<path class="st2" d="M396.5,174.2c-1.4,0-2.7-0.2-3.9-0.6c-1.2-0.4-2.3-1-3.2-1.7l1.7-2.9c0.7,0.6,1.6,1.1,2.5,1.4
				c1,0.3,1.9,0.5,3,0.5c1.2,0,2.1-0.2,2.7-0.6c0.6-0.4,1-1,1-1.7v0c0-0.5-0.2-1-0.5-1.3c-0.3-0.3-0.7-0.5-1.3-0.6
				c-0.5-0.1-1.1-0.3-1.7-0.4c-0.7-0.1-1.5-0.3-2.2-0.5c-0.8-0.2-1.5-0.4-2.1-0.8c-0.6-0.4-1.1-0.9-1.5-1.6
				c-0.4-0.7-0.6-1.6-0.6-2.7v0c0-1.8,0.6-3.3,1.8-4.3c1.2-1,2.9-1.5,5.2-1.5c1,0,2.1,0.2,3.1,0.5c1.1,0.3,2,0.8,3,1.5l-1.5,3
				c-1.5-1.1-3.1-1.6-4.6-1.6c-1.1,0-1.9,0.2-2.5,0.5c-0.6,0.4-0.9,0.9-0.9,1.5v0c0,0.6,0.2,1.1,0.5,1.4c0.4,0.3,0.8,0.5,1.4,0.7
				s1.2,0.3,1.9,0.4c0.7,0.1,1.5,0.3,2.2,0.5s1.4,0.5,2,0.9c0.6,0.4,1.1,0.9,1.4,1.6c0.4,0.7,0.5,1.5,0.5,2.6v0
				c0,1.8-0.6,3.2-1.9,4.2S398.8,174.2,396.5,174.2z"/>
			<path class="st2" d="M419.3,159c0.3,0.6,0.5,1.2,0.5,1.9c0,1.4-0.9,2.4-2.5,2.3c0.9,1.1,1.3,2.5,1.3,4.3c0,4.8-3.3,6.9-6.4,6.9
				c-3.5,0-6.2-2.6-6.2-6.6c0-4.3,2.8-6.9,6.4-6.9c0.8,0,1.5,0.1,2.2,0.4c0.6,0.2,1.4,0.7,2.3,0.7c0.7,0,1.1-0.4,1.1-1.1
				c0-0.6-0.2-1.1-0.4-1.6L419.3,159z M408.3,167.6c0,2.8,1.6,5,3.9,5c2.2,0,3.9-2.1,3.9-5c0-2.2-1.1-5-3.9-5
				S408.3,165.2,408.3,167.6z"/>
			<path class="st2" d="M438.5,159.3v11.4c0,1.1,0,2.5,0.1,3.3h-2.1l-0.1-2.2h-0.1c-0.7,1.4-2.3,2.5-4.4,2.5c-3.1,0-5.5-2.6-5.5-6.6
				c0-4.3,2.6-6.9,5.8-6.9c2,0,3.3,0.9,3.9,2h0.1v-3.5h-5.3v-1.5h5.3v-2.7h2.4v2.7h2.1v1.5H438.5z M436.2,166.4c0-0.3,0-0.7-0.1-1
				c-0.3-1.5-1.6-2.7-3.4-2.7c-2.4,0-3.9,2.1-3.9,5c0,2.6,1.3,4.8,3.8,4.8c1.6,0,3-1,3.4-2.8c0.1-0.3,0.1-0.6,0.1-1V166.4z"/>
			<path class="st2" d="M454.1,167.5c0,4.8-3.3,6.9-6.4,6.9c-3.5,0-6.2-2.6-6.2-6.6c0-4.3,2.8-6.9,6.4-6.9
				C451.6,160.8,454.1,163.5,454.1,167.5z M443.9,167.6c0,2.8,1.6,5,3.9,5c2.2,0,3.9-2.1,3.9-5c0-2.2-1.1-5-3.9-5
				S443.9,165.2,443.9,167.6z M448.8,155.6l2.3,3.8h-1.8l-1.3-2.5h-0.1l-1.3,2.5h-1.7l2.3-3.8H448.8z M451.1,153.4l1.7,3.5h-1.4
				l-2.5-3.5H451.1z"/>
			<path class="st2" d="M462.8,155.1h2.4v8.1h0.1c0.4-0.7,1-1.3,1.7-1.7c0.7-0.4,1.5-0.7,2.4-0.7c1.7,0,4.5,1.1,4.5,5.5v7.7h-2.4
				v-7.4c0-2.1-0.8-3.8-3-3.8c-1.5,0-2.7,1.1-3.2,2.3c-0.1,0.3-0.2,0.7-0.2,1.1v7.8h-2.4V155.1z"/>
			<path class="st2" d="M489.3,167.5c0,4.8-3.3,6.9-6.4,6.9c-3.5,0-6.2-2.6-6.2-6.6c0-4.3,2.8-6.9,6.4-6.9
				C486.8,160.8,489.3,163.5,489.3,167.5z M479,167.6c0,2.8,1.6,5,3.9,5c2.2,0,3.9-2.1,3.9-5c0-2.2-1.1-5-3.9-5
				C480.2,162.6,479,165.2,479,167.6z"/>
			<path class="st2" d="M499.4,174l-0.2-1.6h-0.1c-0.7,1-2.1,1.9-4,1.9c-2.6,0-4-1.8-4-3.7c0-3.1,2.8-4.8,7.8-4.8v-0.3
				c0-1.1-0.3-3-2.9-3c-1.2,0-2.5,0.4-3.4,1l-0.5-1.5c1.1-0.7,2.6-1.1,4.3-1.1c4,0,4.9,2.7,4.9,5.3v4.8c0,1.1,0.1,2.2,0.2,3.1H499.4
				z M499.1,167.5c-2.6-0.1-5.5,0.4-5.5,2.9c0,1.5,1,2.2,2.2,2.2c1.7,0,2.8-1.1,3.1-2.2c0.1-0.2,0.1-0.5,0.1-0.7V167.5z
				 M498.1,177.5c0,0.7-0.5,1.4-1.4,1.4c-0.7,0-1.3-0.6-1.3-1.4s0.6-1.4,1.4-1.4C497.5,176.2,498.1,176.8,498.1,177.5z"/>
			<path class="st2" d="M508,157.4v3.7h3.4v1.8H508v7c0,1.6,0.5,2.5,1.8,2.5c0.6,0,1.1-0.1,1.4-0.2l0.1,1.8
				c-0.5,0.2-1.2,0.3-2.1,0.3c-1.1,0-2-0.3-2.5-1c-0.7-0.7-0.9-1.8-0.9-3.4v-7h-2v-1.8h2V158L508,157.4z"/>
			<path class="st2" d="M530.8,159.3v11.4c0,1.1,0,2.5,0.1,3.3h-2.1l-0.1-2.2h-0.1c-0.7,1.4-2.3,2.5-4.4,2.5c-3.1,0-5.5-2.6-5.5-6.6
				c0-4.3,2.6-6.9,5.8-6.9c2,0,3.3,0.9,3.9,2h0.1v-3.5h-5.3v-1.5h5.3v-2.7h2.4v2.7h2.1v1.5H530.8z M528.5,166.4c0-0.3,0-0.7-0.1-1
				c-0.3-1.5-1.6-2.7-3.4-2.7c-2.4,0-3.9,2.1-3.9,5c0,2.6,1.3,4.8,3.8,4.8c1.6,0,3-1,3.4-2.8c0.1-0.3,0.1-0.6,0.1-1V166.4z"/>
			<path class="st2" d="M546.5,167.5c0,4.8-3.3,6.9-6.4,6.9c-3.5,0-6.2-2.6-6.2-6.6c0-4.3,2.8-6.9,6.4-6.9
				C543.9,160.8,546.5,163.5,546.5,167.5z M536.2,167.6c0,2.8,1.6,5,3.9,5c2.2,0,3.9-2.1,3.9-5c0-2.2-1.1-5-3.9-5
				C537.4,162.6,536.2,165.2,536.2,167.6z M540.9,155.6l2.6,3.8h-1.8l-1.5-2.5h-0.1l-1.6,2.5h-1.7l2.5-3.8H540.9z M541.5,177.5
				c0,0.7-0.5,1.4-1.4,1.4c-0.7,0-1.3-0.6-1.3-1.4s0.6-1.4,1.4-1.4C540.9,176.2,541.5,176.8,541.5,177.5z"/>
			<path class="st2" d="M549.4,164.6c0-1.3,0-2.4-0.1-3.5h2.1l0.1,2.1h0.1c0.6-1.2,2.1-2.4,4.3-2.4c1.8,0,4.6,1.1,4.6,5.5v7.7h-2.4
				v-7.4c0-2.1-0.8-3.8-3-3.8c-1.6,0-2.8,1.1-3.2,2.4c-0.1,0.3-0.2,0.7-0.2,1.1v7.8h-2.4V164.6z"/>
			<path class="st2" d="M575.4,161.1c-0.1,0.9-0.1,2-0.1,3.5v7.5c0,3-0.6,4.8-1.8,5.9c-1.3,1.2-3.1,1.5-4.7,1.5
				c-1.5,0-3.3-0.4-4.3-1.1l0.6-1.8c0.9,0.5,2.2,1,3.8,1c2.4,0,4.2-1.3,4.2-4.5v-1.4h-0.1c-0.7,1.2-2.1,2.2-4.1,2.2
				c-3.2,0-5.5-2.7-5.5-6.3c0-4.4,2.9-6.9,5.8-6.9c2.2,0,3.5,1.2,4,2.2h0.1l0.1-1.9H575.4z M573,166.2c0-0.4,0-0.7-0.1-1.1
				c-0.4-1.4-1.6-2.5-3.3-2.5c-2.2,0-3.8,1.9-3.8,4.9c0,2.5,1.3,4.6,3.8,4.6c1.4,0,2.8-0.9,3.3-2.4c0.1-0.4,0.2-0.9,0.2-1.3V166.2z"
				/>
		</g>
	</g>
	
		<ellipse transform="matrix(0.1294 -0.9916 0.9916 0.1294 486.0741 664.0665)" class="st2" cx="621.2" cy="55.2" rx="49.1" ry="95.4"/>
	<text transform="matrix(0.9941 0.13 -0.1303 0.9915 560.8212 37.0561)"><tspan x="0" y="0" class="st3 st4 st5">đơn hàng về hệ thống</tspan><tspan x="0" y="13.3" class="st3 st4 st5">xử lý giao đúng trong</tspan><tspan x="0" y="26.7" class="st3 st4 st5">khung giờ khách chọn</tspan></text>
	
		<rect x="778.6" y="138.9" transform="matrix(0.9995 3.264678e-02 -3.264678e-02 0.9995 6.2354 -27.7429)" class="st6" width="148.2" height="76.3"/>
	<text transform="matrix(1.0021 3.273258e-02 -3.281884e-02 0.9995 791.4135 174.3726)"><tspan x="0" y="0" class="st3 st4 st7">nhân viên giao hàng </tspan><tspan x="0" y="13.3" class="st3 st4 st7">    đến người nhận</tspan></text>
	
		<rect x="258.1" y="15.2" transform="matrix(0.9896 -0.1437 0.1437 0.9896 -4.2238 48.2884)" class="st6" width="148.2" height="76.3"/>
	<text transform="matrix(0.9921 -0.144 0.1444 0.9895 274.6144 62.046)"><tspan x="0" y="0" class="st3 st4 st8">   đến giờ chốt đơn</tspan><tspan x="0" y="13.3" class="st3 st4 st8">nhân viên đi lấy hàng</tspan></text>
	<rect x="92.9" y="198.4" class="st9" width="174.5" height="112.9"/>
	
		<ellipse transform="matrix(0.9995 -3.069730e-02 3.069730e-02 0.9995 -5.2801 3.1941)" class="st10" cx="101.4" cy="173.6" rx="95.4" ry="52.6"/>
	<g>
		<g>
			<path class="st3" d="M56.8,167.8V166h3.9v1.8H56.8z M59.6,174c-0.7,0-1.2-0.2-1.6-0.5s-0.5-0.9-0.5-1.6v-8.2h2.1v7.7
				c0,0.2,0,0.3,0.1,0.4s0.2,0.2,0.3,0.2h0.5v2H59.6z"/>
			<path class="st3" d="M62.4,164.9v-2.1h2.1v2.1H62.4z M62.4,174v-8h2.1v8H62.4z"/>
			<path class="st3" d="M67.4,170.5c0,1.9,1.2,2.7,2.6,2.7c1,0,1.6-0.2,2.1-0.4l0.2,1c-0.5,0.2-1.3,0.5-2.6,0.5
				c-2.4,0-3.8-1.6-3.8-3.9s1.4-4.1,3.6-4.1c2.5,0,3.2,2.2,3.2,3.6c0,0.3,0,0.5,0,0.6H67.4z M71.5,169.5c0-0.9-0.4-2.3-1.9-2.3
				c-1.4,0-2,1.3-2.1,2.3H71.5z M70.2,163.1l1.4,2.3h-1.1l-0.8-1.5h0l-0.8,1.5h-1l1.3-2.3H70.2z M73.5,161.8l-1.6,2.1h-0.8l1.1-2.1
				H73.5z"/>
			<path class="st3" d="M74.5,177.3V166h2.1v11.3H74.5z M78.5,174.2c-0.5,0-0.9-0.1-1.2-0.4c-0.3-0.2-0.6-0.6-0.8-1l0.1-1.8
				c0,0.3,0,0.5,0.1,0.7c0.1,0.2,0.2,0.3,0.4,0.4c0.2,0.1,0.4,0.1,0.6,0.1c0.4,0,0.7-0.1,0.9-0.4s0.3-0.6,0.3-1.1v-1.3
				c0-0.5-0.1-0.9-0.3-1.1c-0.2-0.3-0.5-0.4-0.9-0.4c-0.3,0-0.5,0.1-0.6,0.2s-0.3,0.2-0.4,0.4c-0.1,0.2-0.1,0.4-0.1,0.7l-0.2-1.8
				c0.2-0.5,0.5-0.8,0.9-1.1c0.4-0.3,0.7-0.4,1.2-0.4c0.9,0,1.5,0.3,2,0.9c0.5,0.6,0.7,1.5,0.7,2.6v1.3c0,1.1-0.2,2-0.7,2.6
				C80,173.9,79.4,174.2,78.5,174.2z"/>
			<path class="st3" d="M85.9,174v-8H88v8H85.9z M90.5,174v-4.9c0-0.4-0.1-0.7-0.3-0.9c-0.2-0.2-0.5-0.3-1-0.3
				c-0.4,0-0.7,0.1-0.9,0.3c-0.2,0.2-0.3,0.5-0.3,0.9l-0.2-1.8c0.2-0.5,0.5-0.9,0.8-1.1s0.8-0.4,1.3-0.4c0.8,0,1.5,0.3,2,0.9
				s0.7,1.4,0.7,2.4v4.9H90.5z"/>
			<path class="st3" d="M94.7,174v-11.2h2.1V174H94.7z M99.4,174v-4.9c0-0.4-0.1-0.7-0.3-0.9c-0.2-0.2-0.5-0.3-1-0.3
				c-0.4,0-0.7,0.1-0.9,0.3c-0.2,0.2-0.3,0.5-0.3,0.9l-0.2-1.8c0.2-0.5,0.5-0.9,0.8-1.1s0.8-0.4,1.3-0.4c0.8,0,1.5,0.3,2,0.9
				s0.7,1.4,0.7,2.4v4.9H99.4z"/>
			<path class="st3" d="M107.9,174l-0.1-1h0c-0.4,0.6-1.3,1.1-2.4,1.1c-1.6,0-2.4-1.1-2.4-2.2c0-1.9,1.7-2.9,4.6-2.9V169
				c0-0.6-0.2-1.8-1.7-1.8c-0.7,0-1.5,0.2-2,0.6l-0.3-0.9c0.6-0.4,1.6-0.7,2.5-0.7c2.4,0,2.9,1.6,2.9,3.1v2.9c0,0.7,0,1.3,0.1,1.8
				H107.9z M106.7,163.1l1.5,2.3h-1.1l-0.9-1.5h0l-0.9,1.5h-1l1.5-2.3H106.7z M107.7,170.1c-1.5,0-3.3,0.2-3.3,1.7
				c0,0.9,0.6,1.3,1.3,1.3c1,0,1.6-0.6,1.9-1.3c0-0.1,0.1-0.3,0.1-0.4V170.1z M107.1,176.1c0,0.4-0.3,0.8-0.8,0.8
				c-0.4,0-0.8-0.4-0.8-0.8s0.3-0.8,0.8-0.8C106.8,175.3,107.1,175.7,107.1,176.1z"/>
			<path class="st3" d="M111.3,174v-8h2.1v8H111.3z M115.9,174v-4.9c0-0.4-0.1-0.7-0.3-0.9c-0.2-0.2-0.5-0.3-1-0.3
				c-0.4,0-0.7,0.1-0.9,0.3c-0.2,0.2-0.3,0.5-0.3,0.9l-0.2-1.8c0.2-0.5,0.5-0.9,0.8-1.1s0.8-0.4,1.3-0.4c0.8,0,1.5,0.3,2,0.9
				s0.7,1.4,0.7,2.4v4.9H115.9z"/>
			<path class="st3" d="M129.6,165.3v6.8c0,0.7,0,1.5,0.1,2h-1.3l-0.1-1.3h0c-0.4,0.9-1.4,1.5-2.6,1.5c-1.9,0-3.3-1.6-3.3-3.9
				c0-2.5,1.6-4.1,3.4-4.1c1.2,0,2,0.6,2.3,1.2h0v-2.1H125v-0.9h3.1v-1.6h1.4v1.6h1.2v0.9H129.6z M128.2,169.5c0-0.2,0-0.4-0.1-0.6
				c-0.2-0.9-1-1.6-2-1.6c-1.4,0-2.3,1.3-2.3,3c0,1.6,0.8,2.8,2.3,2.8c0.9,0,1.8-0.6,2-1.7c0-0.2,0.1-0.4,0.1-0.6V169.5z"/>
			<path class="st3" d="M139.3,165.1c0.2,0.3,0.3,0.7,0.3,1.2c0,0.9-0.5,1.4-1.5,1.4c0.5,0.6,0.8,1.5,0.8,2.5c0,2.8-2,4.1-3.8,4.1
				c-2.1,0-3.7-1.5-3.7-3.9c0-2.6,1.7-4.1,3.8-4.1c0.5,0,0.9,0.1,1.3,0.2c0.4,0.1,0.9,0.4,1.4,0.4c0.4,0,0.6-0.2,0.6-0.6
				c0-0.3-0.1-0.7-0.3-0.9L139.3,165.1z M132.7,170.2c0,1.7,1,2.9,2.3,2.9c1.3,0,2.3-1.3,2.3-3c0-1.3-0.7-2.9-2.3-2.9
				C133.5,167.2,132.7,168.8,132.7,170.2z"/>
			<path class="st3" d="M140.7,168.4c0-0.8,0-1.4-0.1-2.1h1.2l0.1,1.3h0c0.4-0.7,1.3-1.4,2.5-1.4c1.1,0,2.7,0.6,2.7,3.3v4.6h-1.4
				v-4.4c0-1.2-0.5-2.3-1.8-2.3c-0.9,0-1.6,0.6-1.9,1.4c-0.1,0.2-0.1,0.4-0.1,0.6v4.6h-1.4V168.4z"/>
			<path class="st3" d="M59.1,177.5v2.2h2v1.1h-2v4.1c0,1,0.3,1.5,1,1.5c0.4,0,0.6,0,0.8-0.1l0.1,1c-0.3,0.1-0.7,0.2-1.2,0.2
				c-0.7,0-1.2-0.2-1.5-0.6c-0.4-0.4-0.5-1.1-0.5-2v-4.2h-1.2v-1.1h1.2v-1.8L59.1,177.5z"/>
			<path class="st3" d="M62.7,182.1c0-0.9,0-1.7-0.1-2.4h1.2l0,1.5H64c0.3-1,1.2-1.7,2.1-1.7c0.2,0,0.3,0,0.4,0v1.3
				c-0.1,0-0.3,0-0.5,0c-1,0-1.7,0.7-1.9,1.8c0,0.2-0.1,0.4-0.1,0.6v4.1h-1.4V182.1z"/>
			<path class="st3" d="M68.7,183.8c0,1.9,1.2,2.7,2.6,2.7c1,0,1.6-0.2,2.1-0.4l0.2,1c-0.5,0.2-1.3,0.5-2.6,0.5
				c-2.4,0-3.8-1.6-3.8-3.9s1.4-4.1,3.6-4.1c2.5,0,3.2,2.2,3.2,3.6c0,0.3,0,0.5,0,0.6H68.7z M72.8,182.8c0-0.9-0.4-2.3-1.9-2.3
				c-1.4,0-2,1.3-2.1,2.3H72.8z M71.4,176.4l1.5,2.3h-1.1l-0.9-1.5h0l-0.9,1.5h-1l1.5-2.3H71.4z"/>
			<path class="st3" d="M75.9,181.8c0-0.8,0-1.4-0.1-2.1H77l0.1,1.3h0c0.4-0.7,1.3-1.4,2.5-1.4c1.1,0,2.7,0.6,2.7,3.3v4.6H81V183
				c0-1.2-0.5-2.3-1.8-2.3c-0.9,0-1.6,0.6-1.9,1.4c-0.1,0.2-0.1,0.4-0.1,0.6v4.6h-1.4V181.8z"/>
			<path class="st3" d="M88.6,179.7l1,3.9c0.2,0.9,0.4,1.6,0.6,2.4h0c0.2-0.8,0.4-1.6,0.7-2.4l1.3-3.9h1.2l1.2,3.8
				c0.3,0.9,0.5,1.7,0.7,2.5h0c0.1-0.8,0.3-1.6,0.6-2.5l1.1-3.8h1.4l-2.5,7.7h-1.3l-1.2-3.7c-0.3-0.9-0.5-1.6-0.7-2.5h0
				c-0.2,0.9-0.4,1.7-0.7,2.5l-1.2,3.6h-1.3l-2.3-7.7H88.6z"/>
			<path class="st3" d="M100.5,183.8c0,1.9,1.2,2.7,2.6,2.7c1,0,1.6-0.2,2.1-0.4l0.2,1c-0.5,0.2-1.3,0.5-2.6,0.5
				c-2.4,0-3.8-1.6-3.8-3.9s1.4-4.1,3.6-4.1c2.5,0,3.2,2.2,3.2,3.6c0,0.3,0,0.5,0,0.6H100.5z M104.6,182.8c0-0.9-0.4-2.3-1.9-2.3
				c-1.4,0-2,1.3-2.1,2.3H104.6z"/>
			<path class="st3" d="M107.6,187.4c0-0.5,0.1-1.3,0.1-2v-9.3h1.4v4.8h0c0.5-0.9,1.4-1.4,2.6-1.4c1.9,0,3.3,1.6,3.2,3.9
				c0,2.7-1.7,4.1-3.4,4.1c-1.1,0-2-0.4-2.6-1.4h0l-0.1,1.3H107.6z M109.1,184.3c0,0.2,0,0.3,0.1,0.5c0.3,1,1.1,1.6,2.1,1.6
				c1.5,0,2.3-1.2,2.3-2.9c0-1.5-0.8-2.9-2.3-2.9c-1,0-1.8,0.6-2.1,1.7c0,0.2-0.1,0.3-0.1,0.6V184.3z"/>
			<path class="st3" d="M116.5,185.9c0.4,0.3,1.1,0.6,1.8,0.6c1,0,1.5-0.5,1.5-1.1c0-0.7-0.4-1-1.4-1.4c-1.4-0.5-2-1.3-2-2.2
				c0-1.2,1-2.2,2.7-2.2c0.8,0,1.5,0.2,1.9,0.5l-0.3,1c-0.3-0.2-0.9-0.4-1.6-0.4c-0.8,0-1.3,0.5-1.3,1c0,0.6,0.5,0.9,1.5,1.3
				c1.3,0.5,2,1.2,2,2.3c0,1.3-1,2.3-2.9,2.3c-0.8,0-1.6-0.2-2.2-0.5L116.5,185.9z"/>
			<path class="st3" d="M124.6,177.5c0,0.5-0.3,0.9-0.9,0.9c-0.5,0-0.8-0.4-0.8-0.9c0-0.5,0.4-0.9,0.9-0.9
				C124.2,176.7,124.6,177.1,124.6,177.5z M123,187.4v-7.7h1.4v7.7H123z"/>
			<path class="st3" d="M128.4,177.5v2.2h2v1.1h-2v4.1c0,1,0.3,1.5,1,1.5c0.4,0,0.6,0,0.8-0.1l0.1,1c-0.3,0.1-0.7,0.2-1.2,0.2
				c-0.7,0-1.2-0.2-1.5-0.6c-0.4-0.4-0.5-1.1-0.5-2v-4.2h-1.2v-1.1h1.2v-1.8L128.4,177.5z"/>
			<path class="st3" d="M132.8,183.8c0,1.9,1.2,2.7,2.6,2.7c1,0,1.6-0.2,2.1-0.4l0.2,1c-0.5,0.2-1.3,0.5-2.6,0.5
				c-2.4,0-3.8-1.6-3.8-3.9s1.4-4.1,3.6-4.1c2.5,0,3.2,2.2,3.2,3.6c0,0.3,0,0.5,0,0.6H132.8z M136.9,182.8c0-0.9-0.4-2.3-1.9-2.3
				c-1.4,0-2,1.3-2.1,2.3H136.9z"/>
		</g>
	</g>
	<rect x="256.6" y="248.6" class="st2" width="148.2" height="76.3"/>
	<text transform="matrix(1.0026 -5.026309e-03 5.039554e-03 1 272.6844 294.4062)" class="st3 st4 st11">xử lý lỗi và giao lại</text>
	<polygon class="st12" points="219.3,66 256.6,65.7 226,86.1 	"/>
	<polygon class="st12" points="489.8,30.3 525.3,42 489.7,51.6 	"/>
	<polygon class="st12" points="443.8,317.5 408.2,306.4 443.7,296.2 	"/>
	<polygon class="st2" points="471.7,258.8 507.5,269.4 472.2,280 	"/>
	<polygon class="st12" points="774.5,267.8 737.2,269.8 766.8,248 	"/>
	<polygon class="st12" points="817.8,105.4 837.9,136.7 804.2,121.8 	"/>
	
		<ellipse transform="matrix(1 -1.048608e-03 1.048608e-03 1 -0.3001 0.6514)" class="st10" cx="621" cy="286.5" rx="121" ry="56.7"/>
	<text transform="matrix(1.1011 -1.156322e-03 1.055698e-03 1 558.5745 275.7592)"><tspan x="0" y="0" class="st3 st4 st13">        kết thúc</tspan><tspan x="0" y="15.4" class="st3 st4 st13">báo cáo hệ thống</tspan><tspan x="0" y="30.8" class="st3 st4 st13">sử lý lỗi * nếu có * </tspan></text>
</g>
</svg>
