<?xml version="1.0" encoding="utf-8"?>
<!-- Generator: Adobe Illustrator 22.0.1, SVG Export Plug-In . SVG Version: 6.00 Build 0)  -->
<svg version="1.1" id="Layer_1" xmlns="http://www.w3.org/2000/svg" xmlns:xlink="http://www.w3.org/1999/xlink" x="0px" y="0px"
	 viewBox="0 0 75 36" style="enable-background:new 0 0 75 36;" xml:space="preserve">
<style type="text/css">
	.st0{fill:#212121;}
	.st1{opacity:0.97;fill:#212121;}
</style>
<g>
	<path class="st0" d="M60.4,26.6h14.3c0,0-1.3-5.6-9.3-5.8L60.4,26.6z"/>
	<path class="st0" d="M73.5,28.5h-3.1c1.4,4.3-8.6,7.5-8.6,0h-3.5v2.3c1.4,5.5,12.5,6.6,15.2,0V28.5z"/>
	<path class="st0" d="M62,11.5h3.4c0,0,0.7,0.4,0.5,2c0,1-1.9,0.4-1.9,0.4L62,11.5z"/>
	<path class="st0" d="M40.7,26h8.8c4.3-1.6,5.7-3.5,6.5-13.3l2.3-1.3c0,0,1-0.4,1.3,0.6c0,0,1.6,1.3,3.8,3.5c2.2,2.2,0.2,4.6,0,4.9
		s-3.7,4.2-3.7,4.2s-2.8,4.3-10.3,4.9c-7.5,0.6-20.6-0.1-22.7-0.4c-2.6-0.1-8.8-1.5-10.7-2.6c0-4,4.8-15.1,25.6-8.8L40.7,26z"/>
	<path class="st0" d="M32.9,31.1h-3.1c-1.2,1.8-6.3,3.5-8.8-1.3l-2.8-0.6C17,34.2,28.4,39.1,32.9,31.1z"/>
	<path class="st0" d="M16,20.9l-2.3-0.3c0,0-1.2,1.1-1.2,2.5h1.7C14.3,23.1,14.7,21.8,16,20.9z"/>
	<path class="st0" d="M22.8,12h13.7c0,0,4.9,0.4,5.6,4c-3.5-1.7-15-2.4-18.6-0.5C23.5,15.4,22.4,13.3,22.8,12z"/>
	<path class="st0" d="M57.8,10l-2.4,0.9l-1.2-2c0,0-1.7,0.2-3.5,0c-1-0.2-0.8-1.3,0-1.5h3c0,0,1.7-2,2.7,0L57.8,10z"/>
</g>
<path class="st1" d="M30,13.1h-9.3c-1.6,0-2.9-1.3-2.9-2.9V3.3c0-1.6,1.3-2.9,2.9-2.9H30c1.6,0,2.9,1.3,2.9,2.9v6.9
	C33,11.8,31.6,13.1,30,13.1z"/>
<polygon class="st1" points="4.7,3 16,2.5 16,3 "/>
<polygon class="st1" points="-0.1,8.9 11.2,8.5 10.4,8.9 "/>
<polygon class="st1" points="9,13.8 16,13.6 15.2,14.3 "/>
</svg>
