<?xml version="1.0" encoding="utf-8"?>
<!-- Generator: Adobe Illustrator 15.0.1, SVG Export Plug-In . SVG Version: 6.00 Build 0)  -->
<!DOCTYPE svg PUBLIC "-//W3C//DTD SVG 1.1//EN" "http://www.w3.org/Graphics/SVG/1.1/DTD/svg11.dtd">
<svg version="1.1"
	 id="svg2" xmlns:rdf="http://www.w3.org/1999/02/22-rdf-syntax-ns#" xmlns:dc="http://purl.org/dc/elements/1.1/" sodipodi:version="0.32" xmlns:inkscape="http://www.inkscape.org/namespaces/inkscape" inkscape:version="0.47 r22583" inkscape:output_extension="org.inkscape.output.svg.inkscape" sodipodi:docname="youtube.svg" xmlns:svg="http://www.w3.org/2000/svg" xmlns:cc="http://creativecommons.org/ns#" xmlns:sodipodi="http://sodipodi.sourceforge.net/DTD/sodipodi-0.dtd"
	 xmlns="http://www.w3.org/2000/svg" xmlns:xlink="http://www.w3.org/1999/xlink" x="0px" y="0px" width="256px" height="256px"
	 viewBox="0 0 256 256" enable-background="new 0 0 256 256" xml:space="preserve">
<sodipodi:namedview  pagecolor="#ffffff" inkscape:current-layer="layer1" inkscape:window-height="682" inkscape:document-units="px" inkscape:zoom="0.12374369" inkscape:pageshadow="2" inkscape:pageopacity="0.0" bordercolor="#666666" inkscape:window-width="685" inkscape:window-y="298" showgrid="false" inkscape:cx="112.30587" inkscape:cy="64.459739" inkscape:window-maximized="0" inkscape:window-x="1" borderopacity="1.0" id="base">
	</sodipodi:namedview>
<g id="layer1" transform="translate(-373.642,-318.344)" inkscape:label="Layer 1" inkscape:groupmode="layer">
	
		<path id="rect1942" inkscape:export-filename="C:\Documents and Settings\Molumen\Desktop\path3511111.png" inkscape:export-xdpi="7.7063322" inkscape:export-ydpi="7.7063322" fill="#E5E5E5" d="
		M583.659,328.849H419.625c-19.599,0-35.487,15.888-35.487,35.487v164.015c0,19.599,15.888,35.486,35.487,35.486h164.033
		c19.599,0,35.487-15.888,37.487-34.819V365.004C619.146,344.738,603.257,328.849,583.659,328.849z"/>
	
		<linearGradient id="path1950_1_" gradientUnits="userSpaceOnUse" x1="-808.8727" y1="199.8918" x2="-860.5692" y2="49.2029" gradientTransform="matrix(-0.5915 0 0 -0.5915 -34.5417 412.5453)">
		<stop  offset="0" style="stop-color:#FFFFFF"/>
		<stop  offset="1" style="stop-color:#FFFFFF;stop-opacity:0"/>
	</linearGradient>
	
		<path id="path1950" inkscape:export-filename="C:\Documents and Settings\Molumen\Desktop\path3511111.png" inkscape:export-xdpi="7.7063322" inkscape:export-ydpi="7.7063322" sodipodi:nodetypes="ccccsssc" opacity="0.8326" fill="url(#path1950_1_)" enable-background="new    " d="
		M557.056,338.895H446.227c-29.337,0-52.955,23.81-52.955,53.385v108.127c0.95,23.087,4.603,8.491,11.555-17.075
		c8.081-29.713,34.396-55.682,66.445-75.145c24.461-14.855,51.84-24.341,101.679-25.244
		C601.216,382.432,598.721,346.26,557.056,338.895z"/>
	<g enable-background="new    ">
		<path d="M433.279,353.763h15.304l1.97,7.879l1.667,5.818l1.364,5.697l1.364,5.939l1.061,4.97h0.606l1.061-4.97l1.212-5.939
			l1.515-5.697l1.515-5.818l2.121-7.879h14.849l-15.758,47.274v33.577h-14.091v-33.577L433.279,353.763z"/>
		<path d="M497.826,373.642c11.97,0,18.031,5.697,18.031,16.97v27.88c0,11.273-6.061,16.97-18.031,16.97
			c-11.97,0-18.031-5.697-18.031-16.97v-27.88C479.795,379.34,485.855,373.642,497.826,373.642z M497.826,383.34
			c-3.182,0-4.849,1.939-4.849,5.576v31.273c0,3.515,1.818,5.576,4.849,5.576s4.849-2.061,4.849-5.576v-31.273
			C502.674,385.279,500.856,383.34,497.826,383.34z"/>
		<path d="M553.433,434.614l-1.061-5.212c-5.455,4.485-8.637,6.061-12.425,6.061c-3.182,0-6.515-1.455-8.03-3.394
			c-1.667-2.061-2.121-4.243-2.121-10.425V374.37h13.182v46.911c0,3.03,1.061,4.485,3.485,4.485c1.667,0,3.182-0.606,5.909-2.424
			V374.37h13.183v60.244H553.433z"/>
	</g>
	<path id="rect3708" fill="#FF0000" d="M434.383,445.584h133.076c19.599,0,35.487,15.896,35.487,35.496v30.942
		c0,19.599-15.889,35.487-35.487,35.487H434.383c-19.599,0-35.487-15.889-35.487-35.487v-30.942
		C398.896,461.48,414.784,445.584,434.383,445.584z"/>
</g>
<g enable-background="new    ">
	<path fill="#FFFFFF" d="M56.337,150.482H44.354v-9.588h37.328v9.588H69.147v63.915h-12.81V150.482z"/>
	<path fill="#FFFFFF" d="M105.372,214.397l-0.964-4.738c-4.958,4.077-7.851,5.51-11.294,5.51c-2.893,0-5.923-1.322-7.3-3.086
		c-1.515-1.873-1.929-3.856-1.929-9.477v-42.978h11.984v42.646c0,2.755,0.964,4.077,3.168,4.077c1.515,0,2.893-0.551,5.372-2.203
		v-44.521h11.984v54.769H105.372z"/>
	<path fill="#FFFFFF" d="M129.34,140.895h11.983v23.913c4.683-4.188,7.851-5.84,11.433-5.84c2.755,0,5.785,1.322,7.162,3.085
		c1.516,1.983,1.929,3.968,1.929,9.808v30.415c0,5.73-0.413,7.714-1.929,9.697c-1.377,1.874-4.407,3.196-7.3,3.196
		c-3.582,0-6.612-1.653-11.295-5.951v5.18H129.34V140.895z M146.695,206.353c2.203,0,3.168-1.322,3.168-4.077V171.86
		c0-2.865-0.965-4.077-3.168-4.077c-1.516,0-2.893,0.551-5.372,2.204v34.162C143.803,205.802,145.18,206.353,146.695,206.353z"/>
	<path fill="#FFFFFF" d="M207.163,195.223v1.983c0.138,1.433,0.138,2.425,0.138,2.976c0,9.697-5.923,14.987-16.805,14.987
		c-10.33,0-16.115-5.51-16.115-15.428v-25.456c0-10.358,5.51-15.317,16.666-15.317c9.918,0,16.116,5.179,16.116,13.664v16.089
		h-20.799v12.012c0,3.968,1.239,5.62,4.407,5.62c1.516,0,2.893-0.661,3.581-1.652c0.689-0.992,0.827-2.204,0.827-6.171
		c0-0.992,0-1.764,0-3.307H207.163z M195.18,181.007v-9.257c0-2.534-1.653-3.967-4.408-3.967s-4.407,1.433-4.407,3.967v9.257H195.18
		z"/>
</g>
</svg>
